<?xml version="1.0" encoding="UTF-8"?>
<!--Generator: Apple Native CoreSVG 149-->
<!DOCTYPE svg
PUBLIC "-//W3C//DTD SVG 1.1//EN"
       "http://www.w3.org/Graphics/SVG/1.1/DTD/svg11.dtd">
<svg version="1.1" xmlns="http://www.w3.org/2000/svg" xmlns:xlink="http://www.w3.org/1999/xlink" width="3300" height="2200">
 <!--glyph: "", point size: 100.0, font version: "17.0d9e1", template writer version: "59"-->
 <g id="Notes">
  <rect height="2200" id="artboard" style="fill:white;opacity:1" width="3300" x="0" y="0"/>
  <line style="fill:none;stroke:black;opacity:1;stroke-width:0.5;" x1="263" x2="3036" y1="292" y2="292"/>
  <text style="stroke:none;fill:black;font-family:sans-serif;font-size:13;font-weight:bold;" transform="matrix(1 0 0 1 263 322)">Weight/Scale Variations</text>
  <text style="stroke:none;fill:black;font-family:sans-serif;font-size:13;text-anchor:middle;" transform="matrix(1 0 0 1 559.711 322)">Ultralight</text>
  <text style="stroke:none;fill:black;font-family:sans-serif;font-size:13;text-anchor:middle;" transform="matrix(1 0 0 1 856.422 322)">Thin</text>
  <text style="stroke:none;fill:black;font-family:sans-serif;font-size:13;text-anchor:middle;" transform="matrix(1 0 0 1 1153.13 322)">Light</text>
  <text style="stroke:none;fill:black;font-family:sans-serif;font-size:13;text-anchor:middle;" transform="matrix(1 0 0 1 1449.84 322)">Regular</text>
  <text style="stroke:none;fill:black;font-family:sans-serif;font-size:13;text-anchor:middle;" transform="matrix(1 0 0 1 1746.56 322)">Medium</text>
  <text style="stroke:none;fill:black;font-family:sans-serif;font-size:13;text-anchor:middle;" transform="matrix(1 0 0 1 2043.27 322)">Semibold</text>
  <text style="stroke:none;fill:black;font-family:sans-serif;font-size:13;text-anchor:middle;" transform="matrix(1 0 0 1 2339.98 322)">Bold</text>
  <text style="stroke:none;fill:black;font-family:sans-serif;font-size:13;text-anchor:middle;" transform="matrix(1 0 0 1 2636.69 322)">Heavy</text>
  <text style="stroke:none;fill:black;font-family:sans-serif;font-size:13;text-anchor:middle;" transform="matrix(1 0 0 1 2933.4 322)">Black</text>
  <line style="fill:none;stroke:black;opacity:1;stroke-width:0.5;" x1="263" x2="3036" y1="1903" y2="1903"/>
  <g transform="matrix(1 0 0 1 263 1933)">
   <path d="M9.24805 0.830078Q10.8691 0.830078 12.2949 0.214844Q13.7207-0.400391 14.8096-1.49414Q15.8984-2.58789 16.5186-4.01367Q17.1387-5.43945 17.1387-7.05078Q17.1387-8.66211 16.5186-10.0879Q15.8984-11.5137 14.8047-12.6074Q13.7109-13.7012 12.2852-14.3164Q10.8594-14.9316 9.23828-14.9316Q7.62695-14.9316 6.20117-14.3164Q4.77539-13.7012 3.69141-12.6074Q2.60742-11.5137 1.9873-10.0879Q1.36719-8.66211 1.36719-7.05078Q1.36719-5.43945 1.9873-4.01367Q2.60742-2.58789 3.69629-1.49414Q4.78516-0.400391 6.21094 0.214844Q7.63672 0.830078 9.24805 0.830078ZM9.24805-0.654297Q7.91992-0.654297 6.7627-1.14746Q5.60547-1.64062 4.73145-2.51953Q3.85742-3.39844 3.36426-4.56055Q2.87109-5.72266 2.87109-7.05078Q2.87109-8.37891 3.35938-9.54102Q3.84766-10.7031 4.72168-11.582Q5.5957-12.4609 6.75293-12.9541Q7.91016-13.4473 9.23828-13.4473Q10.5762-13.4473 11.7334-12.9541Q12.8906-12.4609 13.7695-11.582Q14.6484-10.7031 15.1465-9.54102Q15.6445-8.37891 15.6445-7.05078Q15.6445-5.72266 15.1514-4.56055Q14.6582-3.39844 13.7842-2.51953Q12.9102-1.64062 11.748-1.14746Q10.5859-0.654297 9.24805-0.654297ZM5.83984-7.04102Q5.83984-6.71875 6.04492-6.51855Q6.25-6.31836 6.5918-6.31836L8.50586-6.31836L8.50586-4.39453Q8.50586-4.0625 8.70605-3.85742Q8.90625-3.65234 9.22852-3.65234Q9.56055-3.65234 9.76562-3.85742Q9.9707-4.0625 9.9707-4.39453L9.9707-6.31836L11.8945-6.31836Q12.2266-6.31836 12.4316-6.51855Q12.6367-6.71875 12.6367-7.04102Q12.6367-7.37305 12.4316-7.57812Q12.2266-7.7832 11.8945-7.7832L9.9707-7.7832L9.9707-9.69727Q9.9707-10.0391 9.76562-10.2441Q9.56055-10.4492 9.22852-10.4492Q8.90625-10.4492 8.70605-10.2441Q8.50586-10.0391 8.50586-9.69727L8.50586-7.7832L6.5918-7.7832Q6.25-7.7832 6.04492-7.57812Q5.83984-7.37305 5.83984-7.04102Z"/>
  </g>
  <g transform="matrix(1 0 0 1 281.867 1933)">
   <path d="M11.709 2.91016Q13.75 2.91016 15.5518 2.12891Q17.3535 1.34766 18.7305-0.0292969Q20.1074-1.40625 20.8887-3.20801Q21.6699-5.00977 21.6699-7.05078Q21.6699-9.0918 20.8887-10.8936Q20.1074-12.6953 18.7305-14.0723Q17.3535-15.4492 15.5469-16.2305Q13.7402-17.0117 11.6992-17.0117Q9.6582-17.0117 7.85645-16.2305Q6.05469-15.4492 4.68262-14.0723Q3.31055-12.6953 2.5293-10.8936Q1.74805-9.0918 1.74805-7.05078Q1.74805-5.00977 2.5293-3.20801Q3.31055-1.40625 4.6875-0.0292969Q6.06445 1.34766 7.86621 2.12891Q9.66797 2.91016 11.709 2.91016ZM11.709 1.25Q9.98047 1.25 8.47656 0.605469Q6.97266-0.0390625 5.83496-1.17676Q4.69727-2.31445 4.05762-3.81836Q3.41797-5.32227 3.41797-7.05078Q3.41797-8.7793 4.05762-10.2832Q4.69727-11.7871 5.83008-12.9297Q6.96289-14.0723 8.4668-14.7119Q9.9707-15.3516 11.6992-15.3516Q13.4277-15.3516 14.9316-14.7119Q16.4355-14.0723 17.5781-12.9297Q18.7207-11.7871 19.3652-10.2832Q20.0098-8.7793 20.0098-7.05078Q20.0098-5.32227 19.3701-3.81836Q18.7305-2.31445 17.5928-1.17676Q16.4551-0.0390625 14.9463 0.605469Q13.4375 1.25 11.709 1.25ZM7.39258-7.04102Q7.39258-6.68945 7.62695-6.46484Q7.86133-6.24023 8.23242-6.24023L10.8789-6.24023L10.8789-3.57422Q10.8789-3.21289 11.1035-2.9834Q11.3281-2.75391 11.6797-2.75391Q12.0508-2.75391 12.2852-2.9834Q12.5195-3.21289 12.5195-3.57422L12.5195-6.24023L15.1758-6.24023Q15.5371-6.24023 15.7715-6.46484Q16.0059-6.68945 16.0059-7.04102Q16.0059-7.41211 15.7715-7.6416Q15.5371-7.87109 15.1758-7.87109L12.5195-7.87109L12.5195-10.5176Q12.5195-10.8984 12.2852-11.1279Q12.0508-11.3574 11.6797-11.3574Q11.3281-11.3574 11.1035-11.1279Q10.8789-10.8984 10.8789-10.5176L10.8789-7.87109L8.23242-7.87109Q7.85156-7.87109 7.62207-7.6416Q7.39258-7.41211 7.39258-7.04102Z"/>
  </g>
  <g transform="matrix(1 0 0 1 305.646 1933)">
   <path d="M14.9707 5.66406Q17.0605 5.66406 18.96 5.01465Q20.8594 4.36523 22.4512 3.19336Q24.043 2.02148 25.2197 0.429688Q26.3965-1.16211 27.0459-3.06641Q27.6953-4.9707 27.6953-7.05078Q27.6953-9.14062 27.0459-11.04Q26.3965-12.9395 25.2197-14.5312Q24.043-16.123 22.4512-17.2998Q20.8594-18.4766 18.9551-19.126Q17.0508-19.7754 14.9609-19.7754Q12.8711-19.7754 10.9717-19.126Q9.07227-18.4766 7.48535-17.2998Q5.89844-16.123 4.72168-14.5312Q3.54492-12.9395 2.90039-11.04Q2.25586-9.14062 2.25586-7.05078Q2.25586-4.9707 2.90527-3.06641Q3.55469-1.16211 4.72656 0.429688Q5.89844 2.02148 7.49023 3.19336Q9.08203 4.36523 10.9814 5.01465Q12.8809 5.66406 14.9707 5.66406ZM14.9707 3.84766Q13.1641 3.84766 11.5283 3.2959Q9.89258 2.74414 8.53516 1.74805Q7.17773 0.751953 6.17676-0.610352Q5.17578-1.97266 4.62891-3.6084Q4.08203-5.24414 4.08203-7.05078Q4.08203-8.86719 4.62891-10.5029Q5.17578-12.1387 6.17188-13.501Q7.16797-14.8633 8.52539-15.8594Q9.88281-16.8555 11.5186-17.4023Q13.1543-17.9492 14.9609-17.9492Q16.7773-17.9492 18.4131-17.4023Q20.0488-16.8555 21.4111-15.8594Q22.7734-14.8633 23.7695-13.501Q24.7656-12.1387 25.3174-10.5029Q25.8691-8.86719 25.8691-7.05078Q25.8789-5.24414 25.332-3.6084Q24.7852-1.97266 23.7842-0.610352Q22.7832 0.751953 21.4209 1.74805Q20.0586 2.74414 18.4229 3.2959Q16.7871 3.84766 14.9707 3.84766ZM9.45312-7.04102Q9.45312-6.66016 9.71191-6.41113Q9.9707-6.16211 10.3711-6.16211L14.0625-6.16211L14.0625-2.46094Q14.0625-2.06055 14.3115-1.80664Q14.5605-1.55273 14.9414-1.55273Q15.3516-1.55273 15.6055-1.80664Q15.8594-2.06055 15.8594-2.46094L15.8594-6.16211L19.5605-6.16211Q19.9609-6.16211 20.2148-6.41113Q20.4688-6.66016 20.4688-7.04102Q20.4688-7.45117 20.2148-7.70508Q19.9609-7.95898 19.5605-7.95898L15.8594-7.95898L15.8594-11.6504Q15.8594-12.0605 15.6055-12.3145Q15.3516-12.5684 14.9414-12.5684Q14.5605-12.5684 14.3115-12.3096Q14.0625-12.0508 14.0625-11.6504L14.0625-7.95898L10.3711-7.95898Q9.96094-7.95898 9.70703-7.70508Q9.45312-7.45117 9.45312-7.04102Z"/>
  </g>
  <text style="stroke:none;fill:black;font-family:sans-serif;font-size:13;font-weight:bold;" transform="matrix(1 0 0 1 263 1953)">Design Variations</text>
  <text style="stroke:none;fill:black;font-family:sans-serif;font-size:13;" transform="matrix(1 0 0 1 263 1971)">Symbols are supported in up to nine weights and three scales.</text>
  <text style="stroke:none;fill:black;font-family:sans-serif;font-size:13;" transform="matrix(1 0 0 1 263 1989)">For optimal layout with text and other symbols, vertically align</text>
  <text style="stroke:none;fill:black;font-family:sans-serif;font-size:13;" transform="matrix(1 0 0 1 263 2007)">symbols with the adjacent text.</text>
  <line style="fill:none;stroke:#00AEEF;stroke-width:0.5;opacity:1.0;" x1="776" x2="776" y1="1919" y2="1933"/>
  <g transform="matrix(1 0 0 1 776 1933)">
   <path d="M3.31055 0.15625Q3.70117 0.15625 3.91602-0.00976562Q4.13086-0.175781 4.26758-0.585938L5.52734-4.0332L11.2891-4.0332L12.5488-0.585938Q12.6855-0.175781 12.9004-0.00976562Q13.1152 0.15625 13.4961 0.15625Q13.8867 0.15625 14.1162-0.0585938Q14.3457-0.273438 14.3457-0.644531Q14.3457-0.869141 14.2383-1.17188L9.6582-13.3691Q9.48242-13.8184 9.17969-14.043Q8.87695-14.2676 8.4082-14.2676Q7.5-14.2676 7.17773-13.3789L2.59766-1.16211Q2.49023-0.859375 2.49023-0.634766Q2.49023-0.263672 2.70996-0.0537109Q2.92969 0.15625 3.31055 0.15625ZM6.00586-5.51758L8.37891-12.0898L8.42773-12.0898L10.8008-5.51758Z"/>
  </g>
  <line style="fill:none;stroke:#00AEEF;stroke-width:0.5;opacity:1.0;" x1="793.197" x2="793.197" y1="1919" y2="1933"/>
  <text style="stroke:none;fill:black;font-family:sans-serif;font-size:13;font-weight:bold;" transform="matrix(1 0 0 1 776 1953)">Margins</text>
  <text style="stroke:none;fill:black;font-family:sans-serif;font-size:13;" transform="matrix(1 0 0 1 776 1971)">Leading and trailing margins on the left and right side of each symbol</text>
  <text style="stroke:none;fill:black;font-family:sans-serif;font-size:13;" transform="matrix(1 0 0 1 776 1989)">can be adjusted by modifying the x-location of the margin guidelines.</text>
  <text style="stroke:none;fill:black;font-family:sans-serif;font-size:13;" transform="matrix(1 0 0 1 776 2007)">Modifications are automatically applied proportionally to all</text>
  <text style="stroke:none;fill:black;font-family:sans-serif;font-size:13;" transform="matrix(1 0 0 1 776 2025)">scales and weights.</text>
  <g transform="matrix(1 0 0 1 1289 1933)">
   <path d="M2.8418 1.86523L4.54102 3.57422Q5.18555 4.22852 5.90332 4.17969Q6.62109 4.13086 7.31445 3.35938L18.0078-8.42773L17.041-9.4043L6.42578 2.27539Q6.16211 2.57812 5.89355 2.61719Q5.625 2.65625 5.27344 2.30469L4.10156 1.14258Q3.75 0.791016 3.79395 0.522461Q3.83789 0.253906 4.14062-0.0195312L15.6152-10.8203L14.6387-11.7871L3.04688-0.898438Q2.30469-0.214844 2.25098 0.498047Q2.19727 1.21094 2.8418 1.86523ZM9.25781-16.3281Q8.94531-16.0254 8.90625-15.6348Q8.86719-15.2441 9.04297-14.9512Q9.21875-14.6777 9.55566-14.541Q9.89258-14.4043 10.3809-14.5215Q11.4746-14.7754 12.5977-14.7314Q13.7207-14.6875 14.7949-13.9844L14.209-12.5293Q13.9551-11.9043 14.0674-11.4404Q14.1797-10.9766 14.5801-10.5664L16.875-8.25195Q17.2363-7.88086 17.5781-7.82227Q17.9199-7.76367 18.3398-7.8418L19.4043-8.03711L20.0684-7.36328L20.0293-6.80664Q20-6.43555 20.1221-6.12305Q20.2441-5.81055 20.6055-5.44922L21.3672-4.70703Q21.7285-4.3457 22.1533-4.33105Q22.5781-4.31641 22.9297-4.66797L25.8398-7.58789Q26.1914-7.93945 26.1816-8.35449Q26.1719-8.76953 25.8105-9.13086L25.0391-9.89258Q24.6875-10.2539 24.3799-10.3857Q24.0723-10.5176 23.7109-10.4883L23.1348-10.4395L22.4902-11.0742L22.7344-12.1973Q22.832-12.6172 22.6953-12.9834Q22.5586-13.3496 22.1191-13.7891L19.9219-15.9766Q18.6719-17.2168 17.2607-17.8369Q15.8496-18.457 14.4189-18.4814Q12.9883-18.5059 11.665-17.959Q10.3418-17.4121 9.25781-16.3281ZM10.752-15.957Q11.6602-16.6211 12.7002-16.9043Q13.7402-17.1875 14.8047-17.085Q15.8691-16.9824 16.8701-16.5137Q17.8711-16.0449 18.7012-15.2051L21.1328-12.793Q21.3086-12.6172 21.3525-12.4512Q21.3965-12.2852 21.3379-12.0312L21.0156-10.5469L22.5195-9.0625L23.5059-9.12109Q23.6914-9.13086 23.7891-9.09668Q23.8867-9.0625 24.0332-8.91602L24.6094-8.33984L22.168-5.89844L21.5918-6.47461Q21.4453-6.62109 21.4062-6.71875Q21.3672-6.81641 21.377-7.01172L21.4453-7.98828L19.9512-9.47266L18.4277-9.21875Q18.1836-9.16992 18.042-9.2041Q17.9004-9.23828 17.7148-9.41406L15.7129-11.416Q15.5176-11.5918 15.4932-11.7529Q15.4688-11.9141 15.5859-12.1875L16.4648-14.2773Q15.293-15.3711 13.8281-15.791Q12.3633-16.2109 10.8398-15.7617Q10.7227-15.7324 10.6885-15.8057Q10.6543-15.8789 10.752-15.957Z"/>
  </g>
  <text style="stroke:none;fill:black;font-family:sans-serif;font-size:13;font-weight:bold;" transform="matrix(1 0 0 1 1289 1953)">Exporting</text>
  <text style="stroke:none;fill:black;font-family:sans-serif;font-size:13;" transform="matrix(1 0 0 1 1289 1971)">Symbols should be outlined when exporting to ensure the</text>
  <text style="stroke:none;fill:black;font-family:sans-serif;font-size:13;" transform="matrix(1 0 0 1 1289 1989)">design is preserved when submitting to Xcode.</text>
  <text id="template-version" style="stroke:none;fill:black;font-family:sans-serif;font-size:13;text-anchor:end;" transform="matrix(1 0 0 1 3036 1933)">Template v.2.0</text>
  <text style="stroke:none;fill:black;font-family:sans-serif;font-size:13;text-anchor:end;" transform="matrix(1 0 0 1 3036 1951)">Requires Xcode 13 or greater</text>
  <text id="descriptive-name" style="stroke:none;fill:black;font-family:sans-serif;font-size:13;text-anchor:end;" transform="matrix(1 0 0 1 3036 1969)">Generated from custom.record.circle</text>
  <text style="stroke:none;fill:black;font-family:sans-serif;font-size:13;text-anchor:end;" transform="matrix(1 0 0 1 3036 1987)">Typeset at 100 points</text>
  <text style="stroke:none;fill:black;font-family:sans-serif;font-size:13;" transform="matrix(1 0 0 1 263 726)">Small</text>
  <text style="stroke:none;fill:black;font-family:sans-serif;font-size:13;" transform="matrix(1 0 0 1 263 1156)">Medium</text>
  <text style="stroke:none;fill:black;font-family:sans-serif;font-size:13;" transform="matrix(1 0 0 1 263 1586)">Large</text>
 </g>
 <g id="Guides">
  <g id="H-reference" style="fill:#27AAE1;stroke:none;" transform="matrix(1 0 0 1 339 696)">
   <path d="M0.976562 0L3.66211 0L29.3457-67.1387L30.0293-67.1387L30.0293-70.459L28.125-70.459ZM11.6699-24.4629L46.9727-24.4629L46.2402-26.709L12.4512-26.709ZM55.127 0L57.7637 0L30.6152-70.459L29.4434-70.459L29.4434-67.1387Z"/>
  </g>
  <line id="Baseline-S" style="fill:none;stroke:#27AAE1;opacity:1;stroke-width:0.5;" x1="263" x2="3036" y1="696" y2="696"/>
  <line id="Capline-S" style="fill:none;stroke:#27AAE1;opacity:1;stroke-width:0.5;" x1="263" x2="3036" y1="625.541" y2="625.541"/>
  <g id="H-reference" style="fill:#27AAE1;stroke:none;" transform="matrix(1 0 0 1 339 1126)">
   <path d="M0.976562 0L3.66211 0L29.3457-67.1387L30.0293-67.1387L30.0293-70.459L28.125-70.459ZM11.6699-24.4629L46.9727-24.4629L46.2402-26.709L12.4512-26.709ZM55.127 0L57.7637 0L30.6152-70.459L29.4434-70.459L29.4434-67.1387Z"/>
  </g>
  <line id="Baseline-M" style="fill:none;stroke:#27AAE1;opacity:1;stroke-width:0.5;" x1="263" x2="3036" y1="1126" y2="1126"/>
  <line id="Capline-M" style="fill:none;stroke:#27AAE1;opacity:1;stroke-width:0.5;" x1="263" x2="3036" y1="1055.54" y2="1055.54"/>
  <g id="H-reference" style="fill:#27AAE1;stroke:none;" transform="matrix(1 0 0 1 339 1556)">
   <path d="M0.976562 0L3.66211 0L29.3457-67.1387L30.0293-67.1387L30.0293-70.459L28.125-70.459ZM11.6699-24.4629L46.9727-24.4629L46.2402-26.709L12.4512-26.709ZM55.127 0L57.7637 0L30.6152-70.459L29.4434-70.459L29.4434-67.1387Z"/>
  </g>
  <line id="Baseline-L" style="fill:none;stroke:#27AAE1;opacity:1;stroke-width:0.5;" x1="263" x2="3036" y1="1556" y2="1556"/>
  <line id="Capline-L" style="fill:none;stroke:#27AAE1;opacity:1;stroke-width:0.5;" x1="263" x2="3036" y1="1485.54" y2="1485.54"/>
  <line id="left-margin" style="fill:none;stroke:#00AEEF;stroke-width:0.5;opacity:1.0;" x1="1391" x2="1391" y1="1030.78" y2="1150.12"/>
  <line id="right-margin" style="fill:none;stroke:#00AEEF;stroke-width:0.5;opacity:1.0;" x1="1508.69" x2="1508.69" y1="1030.78" y2="1150.12"/>
 </g>
 <g id="Symbols">
  <g id="Black-L" transform="matrix(1 0 0 1 2853.78 1556)">
   <path d="M79.607 33.1373Q93.6473 33.1373 105.933 27.8424Q118.218 22.5474 127.586 13.1691Q136.954 3.79083 142.26-8.49443Q147.566-20.7797 147.566-34.7992Q147.566-48.8188 142.26-61.1041Q136.954-73.3892 127.575-82.7676Q118.197-92.1459 105.912-97.4408Q93.6266-102.736 79.5863-102.736Q65.5681-102.736 53.2822-97.4408Q40.9964-92.1459 31.6393-82.7676Q22.2824-73.3892 16.9765-61.1041Q11.6705-48.8188 11.6705-34.7992Q11.6705-20.7797 16.9765-8.49443Q22.2824 3.79083 31.6497 13.1691Q41.0171 22.5474 53.3029 27.8424Q65.5888 33.1373 79.607 33.1373ZM79.607 12.9897Q69.7058 12.9897 61.0374 9.27255Q52.3689 5.55529 45.8314-0.992468Q39.294-7.54031 35.5761-16.2191Q31.8583-24.898 31.8583-34.7992Q31.8583-44.7004 35.5657-53.3793Q39.2733-62.0581 45.8107-68.6059Q52.3482-75.1538 61.0167-78.871Q69.6851-82.5882 79.5863-82.5882Q89.5083-82.5882 98.1775-78.871Q106.847-75.1538 113.394-68.6059Q119.941-62.0581 123.669-53.3793Q127.397-44.7004 127.397-34.7992Q127.397-24.898 123.68-16.2191Q119.963-7.54031 113.425-0.992468Q106.888 5.55529 98.2092 9.27255Q89.5303 12.9897 79.607 12.9897ZM79.6278-9.96876Q86.5374-9.96876 92.1636-13.3335Q97.7899-16.6982 101.154-22.3639Q104.518-28.0296 104.518-34.9406Q104.518-41.7711 101.154-47.4077Q97.7899-53.0443 92.1636-56.4089Q86.5374-59.7736 79.6278-59.7736Q72.7168-59.7736 67.0614-56.4089Q61.406-53.0443 58.031-47.4077Q54.656-41.7711 54.656-34.9406Q54.656-28.0296 58.031-22.3639Q61.406-16.6982 67.0614-13.3335Q72.7168-9.96876 79.6278-9.96876Z"/>
  </g>
  <g id="Heavy-L" transform="matrix(1 0 0 1 2558.01 1556)">
   <path d="M78.6628 32.1793Q92.4997 32.1793 104.614 26.9585Q116.728 21.7377 125.971 12.4798Q135.213 3.22197 140.452-8.89197Q145.691-21.0059 145.691-34.813Q145.691-48.6201 140.452-60.7341Q135.213-72.848 125.956-82.1059Q116.698-91.3637 104.584-96.5845Q92.4699-101.805 78.633-101.805Q64.832-101.805 52.715-96.5845Q40.5981-91.3637 31.373-82.1059Q22.1479-72.848 16.9092-60.7341Q11.6705-48.6201 11.6705-34.813Q11.6705-21.0059 16.9092-8.89197Q22.1479 3.22197 31.3878 12.4798Q40.6279 21.7377 52.7448 26.9585Q64.8617 32.1793 78.6628 32.1793ZM78.6628 14.4373Q68.4565 14.4373 59.5267 10.6136Q50.5968 6.78995 43.8581 0.0363789Q37.1194-6.71722 33.2927-15.6619Q29.466-24.6067 29.466-34.813Q29.466-45.0193 33.2778-53.964Q37.0896-62.9087 43.8283-69.6624Q50.5671-76.416 59.4969-80.2397Q68.4267-84.0633 78.633-84.0633Q88.8691-84.0633 97.802-80.2397Q106.735-76.416 113.486-69.6624Q120.236-62.9087 124.078-53.964Q127.919-45.0193 127.919-34.813Q127.919-24.6067 124.095-15.6619Q120.272-6.71722 113.533 0.0363789Q106.794 6.78995 97.8497 10.6136Q88.9049 14.4373 78.6628 14.4373ZM78.6926-10.0538Q85.5785-10.0538 91.1928-13.4045Q96.8071-16.7552 100.155-22.4066Q103.502-28.0581 103.502-34.9501Q103.502-41.7616 100.155-47.3909Q96.8071-53.0201 91.1928-56.3707Q85.5785-59.7214 78.6926-59.7214Q71.8006-59.7214 66.164-56.3707Q60.5273-53.0201 57.1618-47.3909Q53.7962-41.7616 53.7962-34.9501Q53.7962-28.0581 57.1618-22.4066Q60.5273-16.7552 66.164-13.4045Q71.8006-10.0538 78.6926-10.0538Z"/>
  </g>
  <g id="Bold-L" transform="matrix(1 0 0 1 2262.47 1556)">
   <path d="M77.477 30.9781Q91.0633 30.9781 102.961 25.8517Q114.859 20.7253 123.945 11.621Q133.031 2.51655 138.183-9.38129Q143.335-21.2791 143.335-34.8284Q143.335-48.3778 138.183-60.2756Q133.031-72.1734 123.926-81.2778Q114.822-90.3822 102.924-95.5085Q91.0264-100.635 77.44-100.635Q63.9049-100.635 52-95.5085Q40.0951-90.3822 31.0347-81.2778Q21.9745-72.1734 16.8225-60.2756Q11.6705-48.3778 11.6705-34.8284Q11.6705-21.2791 16.8225-9.38129Q21.9745 2.51655 31.0532 11.621Q40.1321 20.7253 52.037 25.8517Q63.9419 30.9781 77.477 30.9781ZM77.477 16.2321Q66.8948 16.2321 57.6396 12.275Q48.3842 8.31788 41.3944 1.30961Q34.4047-5.69862 30.4404-14.9724Q26.4762-24.2463 26.4762-34.8284Q26.4762-45.4106 30.4219-54.6844Q34.3677-63.9582 41.3575-70.9665Q48.3472-77.9747 57.6025-81.9319Q66.8579-85.8889 77.44-85.8889Q88.0592-85.8889 97.3216-81.9319Q106.584-77.9747 113.585-70.9665Q120.586-63.9582 124.569-54.6844Q128.552-45.4106 128.552-34.8284Q128.552-24.2463 124.595-14.9724Q120.638-5.69862 113.648 1.30961Q106.658 8.31788 97.3842 12.275Q88.1104 16.2321 77.477 16.2321ZM77.514-10.192Q84.359-10.192 89.9528-13.5228Q95.5466-16.8535 98.8703-22.4803Q102.194-28.1073 102.194-34.9665Q102.194-41.7453 98.8703-47.3576Q95.5466-52.97 89.9528-56.3006Q84.359-59.6313 77.514-59.6313Q70.6548-59.6313 65.0464-56.3006Q59.4379-52.97 56.0887-47.3576Q52.7395-41.7453 52.7395-34.9665Q52.7395-28.1073 56.0887-22.4803Q59.4379-16.8535 65.0464-13.5228Q70.6548-10.192 77.514-10.192Z"/>
  </g>
  <g id="Semibold-L" transform="matrix(1 0 0 1 1966.58 1556)">
   <path d="M76.6595 30.1499Q90.0731 30.1499 101.822 25.0887Q113.571 20.0274 122.548 11.0288Q131.526 2.03024 136.618-9.71862Q141.71-21.4675 141.71-34.8391Q141.71-48.2107 136.618-59.9596Q131.526-71.7084 122.527-80.707Q113.529-89.7056 101.78-94.7668Q90.0312-99.828 76.6176-99.828Q63.2658-99.828 51.5071-94.7668Q39.7483-89.7056 30.8015-80.707Q21.8549-71.7084 16.7627-59.9596Q11.6705-48.2107 11.6705-34.8391Q11.6705-21.4675 16.7627-9.71862Q21.8549 2.03024 30.8225 11.0288Q39.7903 20.0274 51.549 25.0887Q63.3078 30.1499 76.6595 30.1499ZM76.6595 17.4695Q65.8183 17.4695 56.3386 13.4204Q46.8588 9.37123 39.696 2.18737Q32.5332-4.99641 28.4741-14.4971Q24.4151-23.9978 24.4151-34.8391Q24.4151-45.6803 28.4531-55.181Q32.4913-64.6817 39.6541-71.8656Q46.8169-79.0493 56.2966-83.0985Q65.7763-87.1476 76.6176-87.1476Q87.5008-87.1476 96.9904-83.0985Q106.48-79.0493 113.654-71.8656Q120.828-64.6817 124.908-55.181Q128.988-45.6803 128.988-34.8391Q128.988-23.9978 124.939-14.4971Q120.89-4.99641 113.727 2.18737Q106.564 9.37123 97.0633 13.4204Q87.5627 17.4695 76.6595 17.4695ZM76.7015-10.2874Q83.5182-10.2874 89.0979-13.6043Q94.6777-16.9213 97.9847-22.5311Q101.292-28.1412 101.292-34.9777Q101.292-41.734 97.9847-47.3347Q94.6777-52.9354 89.0979-56.2523Q83.5182-59.5692 76.7015-59.5692Q69.8649-59.5692 64.2759-56.2523Q58.6869-52.9354 55.349-47.3347Q52.0111-41.734 52.0111-34.9777Q52.0111-28.1412 55.349-22.5311Q58.6869-16.9213 64.2759-13.6043Q69.8649-10.2874 76.7015-10.2874Z"/>
  </g>
  <g id="Medium-L" transform="matrix(1 0 0 1 1670.48 1556)">
   <path d="M76.0397 29.522Q89.3223 29.522 100.958 24.5101Q112.594 19.4983 121.49 10.5799Q130.385 1.66149 135.432-9.9744Q140.479-21.6103 140.479-34.8471Q140.479-48.084 135.432-59.7199Q130.385-71.3558 121.467-80.2741Q112.548-89.1925 100.912-94.2043Q89.2766-99.2162 75.9939-99.2162Q62.7813-99.2162 51.1333-94.2043Q39.4854-89.1925 30.6247-80.2741Q21.7642-71.3558 16.7174-59.7199Q11.6705-48.084 11.6705-34.8471Q11.6705-21.6103 16.7174-9.9744Q21.7642 1.66149 30.6476 10.5799Q39.5311 19.4983 51.179 24.5101Q62.827 29.522 76.0397 29.522ZM76.0397 18.4077Q65.0019 18.4077 55.3522 14.2888Q45.7023 10.1699 38.4082 2.85293Q31.1142-4.46395 26.9832-14.1366Q22.8522-23.8094 22.8522-34.8471Q22.8522-45.8848 26.9603-55.5575Q31.0684-65.2302 38.3625-72.5473Q45.6565-79.8641 55.3064-83.9831Q64.9562-88.1019 75.9939-88.1019Q87.0774-88.1019 96.7393-83.9831Q106.401-79.8641 113.706-72.5473Q121.011-65.2302 125.165-55.5575Q129.319-45.8848 129.319-34.8471Q129.319-23.8094 125.2-14.1366Q121.081-4.46395 113.787 2.85293Q106.493 10.1699 96.82 14.2888Q87.1473 18.4077 76.0397 18.4077ZM76.0855-10.3596Q82.8808-10.3596 88.4497-13.6662Q94.0188-16.9726 97.3132-22.5697Q100.608-28.1668 100.608-34.9863Q100.608-41.7254 97.3132-47.3173Q94.0188-52.9092 88.4497-56.2157Q82.8808-59.5221 76.0855-59.5221Q69.2659-59.5221 63.6917-56.2157Q58.1174-52.9092 54.788-47.3173Q51.4587-41.7254 51.4587-34.9863Q51.4587-28.1668 54.788-22.5697Q58.1174-16.9726 63.6917-13.6662Q69.2659-10.3596 76.0855-10.3596Z"/>
  </g>
  <g id="Regular-L" transform="matrix(1 0 0 1 1374.57 1556)">
   <path d="M75.2312 28.703Q88.343 28.703 99.8315 23.7555Q111.32 18.808 120.108 9.99429Q128.897 1.18052 133.885-10.308Q138.872-21.7966 138.872-34.8576Q138.872-47.9187 133.885-59.4073Q128.897-70.8959 120.083-79.7096Q111.269-88.5233 99.7809-93.4707Q88.2923-98.4182 75.1805-98.4182Q62.1492-98.4182 50.6458-93.4707Q39.1424-88.5233 30.3941-79.7096Q21.646-70.8959 16.6582-59.4073Q11.6705-47.9187 11.6705-34.8576Q11.6705-21.7966 16.6582-10.308Q21.646 1.18052 30.4194 9.99429Q39.193 18.808 50.6964 23.7555Q62.1998 28.703 75.2312 28.703ZM75.2312 19.6315Q63.9372 19.6315 54.0655 15.4216Q44.1937 11.2117 36.7284 3.72104Q29.2633-3.76945 25.0385-13.6665Q20.8137-23.5636 20.8137-34.8576Q20.8137-46.1516 25.0132-56.0487Q29.2126-65.9458 36.6778-73.4364Q44.143-80.9269 54.0148-85.1368Q63.8865-89.3467 75.1805-89.3467Q86.5252-89.3467 96.4118-85.1368Q106.298-80.9269 113.774-73.4364Q121.25-65.9458 125.5-56.0487Q129.75-46.1516 129.75-34.8576Q129.75-23.5636 125.54-13.6665Q121.33-3.76945 113.865 3.72104Q106.4 11.2117 96.5026 15.4216Q86.6056 19.6315 75.2312 19.6315ZM75.2819-10.4539Q82.0493-10.4539 87.6042-13.7468Q93.1593-17.0396 96.4374-22.6199Q99.7153-28.2004 99.7153-34.9975Q99.7153-41.7143 96.4374-47.2947Q93.1593-52.8751 87.6042-56.1679Q82.0493-59.4606 75.2819-59.4606Q68.4847-59.4606 62.9297-56.1679Q57.3746-52.8751 54.0564-47.2947Q50.7382-41.7143 50.7382-34.9975Q50.7382-28.2004 54.0564-22.6199Q57.3746-17.0396 62.9297-13.7468Q68.4847-10.4539 75.2819-10.4539Z"/>
  </g>
  <g id="Light-L" transform="matrix(1 0 0 1 1078.79 1556)">
   <path d="M74.3077 27.7795Q87.2553 27.7795 98.5694 22.9141Q109.883 18.0487 118.549 9.36837Q127.214 0.688027 132.12-10.6261Q137.025-21.9402 137.025-34.8576Q137.025-47.7751 132.12-59.0892Q127.214-70.4033 118.534-79.0837Q109.853-87.764 98.5393-92.6294Q87.2252-97.4947 74.2776-97.4947Q61.4104-97.4947 50.0712-92.6294Q38.7319-87.764 30.1068-79.0837Q21.4818-70.4033 16.5762-59.0892Q11.6705-47.7751 11.6705-34.8576Q11.6705-21.9402 16.5762-10.6261Q21.4818 0.688027 30.1218 9.36837Q38.7621 18.0487 50.1013 22.9141Q61.4405 27.7795 74.3077 27.7795ZM74.3077 20.8833Q62.7674 20.8833 52.6598 16.5708Q42.5519 12.2583 34.902 4.59323Q27.2521-3.07169 22.9145-13.1945Q18.5768-23.3174 18.5768-34.8576Q18.5768-46.3979 22.8994-56.5207Q27.222-66.6435 34.8718-74.3086Q42.5218-81.9735 52.6296-86.2861Q62.7373-90.5985 74.2776-90.5985Q85.8479-90.5985 95.9808-86.2861Q106.114-81.9735 113.754-74.3086Q121.393-66.6435 125.746-56.5207Q130.099-46.3979 130.099-34.8576Q130.099-23.3174 125.786-13.1945Q121.474-3.07169 113.824 4.59323Q106.174 12.2583 96.0511 16.5708Q85.9284 20.8833 74.3077 20.8833ZM74.3379-10.7617Q81.0026-10.7617 86.5063-14.0239Q92.0101-17.2859 95.2471-22.8047Q98.484-28.3235 98.484-35.0386Q98.484-41.6732 95.2471-47.1921Q92.0101-52.7109 86.5063-55.9729Q81.0026-59.2349 74.3379-59.2349Q67.6228-59.2349 62.1191-55.9729Q56.6153-52.7109 53.3381-47.1921Q50.061-41.6732 50.061-35.0386Q50.061-28.3235 53.3381-22.8047Q56.6153-17.2859 62.1191-14.0239Q67.6228-10.7617 74.3379-10.7617Z"/>
  </g>
  <g id="Thin-L" transform="matrix(1 0 0 1 783.296 1556)">
   <path d="M73.0864 26.5581Q85.8168 26.5581 96.9002 21.8013Q107.983 17.0445 116.486 8.54054Q124.988 0.0366622 129.786-11.0468Q134.582-22.1302 134.582-34.8576Q134.582-47.5852 129.786-58.6685Q124.988-69.7519 116.484-78.2559Q107.98-86.7597 96.8972-91.5166Q85.8138-96.2733 73.0833-96.2733Q60.4333-96.2733 49.3112-91.5166Q38.1891-86.7597 29.7268-78.2559Q21.2647-69.7519 16.4676-58.6685Q11.6705-47.5852 11.6705-34.8576Q11.6705-22.1302 16.4676-11.0468Q21.2647 0.0366622 29.7283 8.54054Q38.1921 17.0445 49.3142 21.8013Q60.4363 26.5581 73.0864 26.5581ZM73.0864 22.539Q61.2204 22.539 50.8006 18.0908Q40.3806 13.6425 32.4863 5.74676Q24.5922-2.14884 20.1053-12.5703Q15.6183-22.9916 15.6183-34.8576Q15.6183-46.7236 20.1038-57.1449Q24.5892-67.5664 32.4833-75.4622Q40.3776-83.3578 50.7975-87.806Q61.2173-92.2542 73.0833-92.2542Q84.9522-92.2542 95.4108-87.806Q105.869-83.3578 113.726-75.4622Q121.583-67.5664 126.072-57.1449Q130.56-46.7236 130.56-34.8576Q130.56-22.9916 126.112-12.5703Q121.664-2.14884 113.77 5.74676Q105.876 13.6425 95.454 18.0908Q85.0327 22.539 73.0864 22.539ZM73.0894-11.1688Q79.6183-11.1688 85.0542-14.3903Q90.4901-17.6116 93.6729-23.049Q96.8555-28.4864 96.8555-35.0929Q96.8555-41.619 93.6729-47.0564Q90.4901-52.4938 85.0542-55.7151Q79.6183-58.9363 73.0894-58.9363Q66.4829-58.9363 61.047-55.7151Q55.6111-52.4938 52.3881-47.0564Q49.1653-41.619 49.1653-35.0929Q49.1653-28.4864 52.3881-23.049Q55.6111-17.6116 61.047-14.3903Q66.4829-11.1688 73.0894-11.1688Z"/>
  </g>
  <g id="Ultralight-L" transform="matrix(1 0 0 1 487.211 1556)">
   <path d="M72.4608 25.9325Q85.08 25.9325 96.0452 21.2313Q107.01 16.5301 115.429 8.11653Q123.848-0.296964 128.59-11.2622Q133.331-22.2275 133.331-34.8576Q133.331-47.4879 128.59-58.453Q123.848-69.4182 115.435-77.8319Q107.021-86.2453 96.0561-90.9466Q85.0908-95.6477 72.4717-95.6477Q59.9328-95.6477 48.9219-90.9466Q37.911-86.2453 29.5322-77.8319Q21.1535-69.4182 16.412-58.453Q11.6705-47.4879 11.6705-34.8576Q11.6705-22.2275 16.412-11.2622Q21.1535-0.296964 29.5267 8.11653Q37.9001 16.5301 48.911 21.2313Q59.9219 25.9325 72.4608 25.9325ZM72.4608 23.387Q60.4279 23.387 49.8483 18.8693Q39.2684 14.3515 31.2491 6.3376Q23.2299-1.67616 18.6664-12.2506Q14.103-22.8248 14.103-34.8576Q14.103-46.8905 18.6719-57.4647Q23.2407-68.0391 31.2599-76.053Q39.2793-84.0667 49.8592-88.5846Q60.4388-93.1022 72.4717-93.1022Q84.4934-93.1022 95.1189-88.5846Q105.744-84.0667 113.712-76.053Q121.681-68.0391 126.239-57.4647Q130.797-46.8905 130.797-34.8576Q130.797-22.8248 126.279-12.2506Q121.761-1.67616 113.742 6.3376Q105.723 14.3515 95.1482 18.8693Q84.574 23.387 72.4608 23.387ZM72.4499-11.3774Q78.9093-11.3774 84.3105-14.578Q89.7116-17.7784 92.8666-23.1741Q96.0214-28.5698 96.0214-35.1207Q96.0214-41.5912 92.8666-46.9869Q89.7116-52.3826 84.3105-55.583Q78.9093-58.7834 72.4499-58.7834Q65.899-58.7834 60.4979-55.583Q55.0967-52.3826 51.9016-46.9869Q48.7066-41.5912 48.7066-35.1207Q48.7066-28.5698 51.9016-23.1741Q55.0967-17.7784 60.4979-14.578Q65.899-11.3774 72.4499-11.3774Z"/>
  </g>
  <g id="Black-M" transform="matrix(1 0 0 1 2871.03 1126)">
   <path d="M62.3613 18.4353Q73.3915 18.4353 83.033 14.2805Q92.6745 10.1257 100.023 2.77445Q107.371-4.57675 111.529-14.2183Q115.686-23.8598 115.686-34.8844Q115.686-45.9091 111.529-55.5506Q107.371-65.192 100.02-72.5433Q92.669-79.8945 83.0275-84.0493Q73.386-88.2041 62.3558-88.2041Q51.3309-88.2041 41.6895-84.0493Q32.0482-79.8945 24.7023-72.5433Q17.3565-65.192 13.199-55.5506Q9.04166-45.9091 9.04166-34.8844Q9.04166-23.8598 13.199-14.2183Q17.3565-4.57675 24.705 2.77445Q32.0537 10.1257 41.695 14.2805Q51.3364 18.4353 62.3613 18.4353ZM62.3613 1.0534Q54.9193 1.0534 48.3961-1.74888Q41.873-4.55123 36.9561-9.4708Q32.0391-14.3905 29.2369-20.9164Q26.4349-27.4424 26.4349-34.8844Q26.4349-42.3265 29.2342-48.8524Q32.0336-55.3783 36.9505-60.298Q41.8675-65.2176 48.3906-68.02Q54.9138-70.8222 62.3558-70.8222Q69.8033-70.8222 76.3265-68.02Q82.8494-65.2176 87.7693-60.298Q92.6891-55.3783 95.494-48.8524Q98.2989-42.3265 98.2989-34.8844Q98.2989-27.4424 95.4966-20.9164Q92.6943-14.3905 87.7774-9.4708Q82.8605-4.55123 76.3346-1.74888Q69.8086 1.0534 62.3613 1.0534ZM62.3668-15.6277Q67.7265-15.6277 72.0886-18.2424Q76.4508-20.8571 79.0656-25.2503Q81.6803-29.6438 81.6803-35.0032Q81.6803-40.3003 79.0656-44.6652Q76.4508-49.0301 72.0886-51.6446Q67.7265-54.2593 62.3668-54.2593Q57.0074-54.2593 52.6168-51.6446Q48.2261-49.0301 45.6088-44.6652Q42.9914-40.3003 42.9914-35.0032Q42.9914-29.6438 45.6088-25.2503Q48.2261-20.8571 52.6168-18.2424Q57.0074-15.6277 62.3668-15.6277Z"/>
  </g>
  <g id="Heavy-M" transform="matrix(1 0 0 1 2575.15 1126)">
   <path d="M61.5234 17.5839Q72.3699 17.5839 81.86 13.494Q91.3502 9.40412 98.5878 2.15835Q105.825-5.08742 109.925-14.5776Q114.024-24.0677 114.024-34.8979Q114.024-45.7281 109.925-55.2183Q105.825-64.7083 98.5797-71.9541Q91.3339-79.1999 81.8438-83.2898Q72.3537-87.3797 61.5072-87.3797Q50.6794-87.3797 41.1881-83.2898Q31.6968-79.1999 24.4684-71.9541Q17.2401-64.7083 13.1409-55.2183Q9.04166-45.7281 9.04166-34.8979Q9.04166-24.0677 13.1409-14.5776Q17.2401-5.08742 24.4765 2.15835Q31.713 9.40412 41.2043 13.494Q50.6957 17.5839 61.5234 17.5839ZM61.5234 2.35299Q53.8059 2.35299 47.049-0.543889Q40.2921-3.44081 35.1955-8.54549Q30.0988-13.6502 27.2007-20.4152Q24.3026-27.1803 24.3026-34.8979Q24.3026-42.6155 27.1926-49.3805Q30.0826-56.1455 35.1792-61.2503Q40.2758-66.355 47.0327-69.2519Q53.7896-72.1487 61.5072-72.1487Q69.241-72.1487 75.9992-69.2519Q82.7573-66.355 87.8609-61.2503Q92.9644-56.1455 95.8705-49.3805Q98.7768-42.6155 98.7768-34.8979Q98.7768-27.1803 95.8799-20.4152Q92.9831-13.6502 87.8864-8.54549Q82.7898-3.44081 76.0248-0.543889Q69.2597 2.35299 61.5234 2.35299ZM61.5397-15.6824Q66.8856-15.6824 71.2409-18.2862Q75.5961-20.89 78.1987-25.2751Q80.8012-29.6603 80.8012-35.0087Q80.8012-40.2948 78.1987-44.6582Q75.5961-49.0215 71.2409-51.6253Q66.8856-54.229 61.5397-54.229Q56.1913-54.229 51.8142-51.6253Q47.4372-49.0215 44.8253-44.6582Q42.2134-40.2948 42.2134-35.0087Q42.2134-29.6603 44.8253-25.2751Q47.4372-20.89 51.8142-18.2862Q56.1913-15.6824 61.5397-15.6824Z"/>
  </g>
  <g id="Bold-M" transform="matrix(1 0 0 1 2279.37 1126)">
   <path d="M60.5861 16.6316Q71.2271 16.6316 80.5479 12.6143Q89.8687 8.59695 96.9824 1.46914Q104.096-5.65867 108.13-14.9795Q112.164-24.3002 112.164-34.913Q112.164-45.5257 108.13-54.8465Q104.096-64.1673 96.9682-71.2951Q89.8405-78.4229 80.5197-82.4402Q71.1989-86.4575 60.5579-86.4575Q49.9507-86.4575 40.6272-82.4402Q31.3037-78.4229 24.2068-71.2951Q17.11-64.1673 13.0758-54.8465Q9.04166-45.5257 9.04166-34.913Q9.04166-24.3002 13.0758-14.9795Q17.11-5.65867 24.2209 1.46914Q31.3319 8.59695 40.6554 12.6143Q49.9789 16.6316 60.5861 16.6316ZM60.5861 3.80677Q52.5603 3.80677 45.542 0.804069Q38.5236-2.19866 33.226-7.5104Q27.9283-12.8221 24.9228-19.8546Q21.9174-26.8872 21.9174-34.913Q21.9174-42.9388 24.9087-49.9713Q27.9001-57.0037 33.1977-62.3155Q38.4954-67.6273 45.5137-70.63Q52.5321-73.6327 60.5579-73.6327Q68.612-73.6327 75.6331-70.63Q82.6543-67.6273 87.9633-62.3155Q93.2723-57.0037 96.2918-49.9713Q99.3115-42.9388 99.3115-34.913Q99.3115-26.8872 96.3087-19.8546Q93.306-12.8221 88.0084-7.5104Q82.7108-2.19866 75.6782 0.804069Q68.6457 3.80677 60.5861 3.80677ZM60.6144-15.7436Q65.945-15.7436 70.2925-18.3353Q74.6401-20.927 77.229-25.3028Q79.8178-29.6787 79.8178-35.0148Q79.8178-40.2886 77.229-44.6503Q74.6401-49.012 70.2925-51.6036Q65.945-54.1952 60.6144-54.1952Q55.2783-54.1952 50.9165-51.6036Q46.5547-49.012 43.9489-44.6503Q41.3432-40.2886 41.3432-35.0148Q41.3432-29.6787 43.9489-25.3028Q46.5547-20.927 50.9165-18.3353Q55.2783-15.7436 60.6144-15.7436Z"/>
  </g>
  <g id="Semibold-M" transform="matrix(1 0 0 1 1983.3 1126)">
   <path d="M59.94 15.975Q70.4393 15.975 79.6434 12.0077Q88.8474 8.04049 95.8756 0.994012Q102.904-6.05249 106.893-15.2565Q110.883-24.4606 110.883-34.9234Q110.883-45.3862 106.893-54.5902Q102.904-63.7942 95.8573-70.8407Q88.8109-77.8872 79.6069-81.8544Q70.4028-85.8217 59.9035-85.8217Q49.4483-85.8217 40.2405-81.8544Q31.0327-77.8872 24.0264-70.8407Q17.0203-63.7942 13.031-54.5902Q9.04166-45.3862 9.04166-34.9234Q9.04166-24.4606 13.031-15.2565Q17.0203-6.05249 24.0447 0.994012Q31.0692 8.04049 40.277 12.0077Q49.4848 15.975 59.94 15.975ZM59.94 4.80899Q51.7017 4.80899 44.5031 1.73334Q37.3044-1.34232 31.8682-6.79682Q26.432-12.2513 23.3525-19.4681Q20.2731-26.6851 20.2731-34.9234Q20.2731-43.1616 23.3343-50.3785Q26.3955-57.5954 31.8317-63.0499Q37.2679-68.5044 44.4665-71.58Q51.6652-74.6557 59.9035-74.6557Q68.1783-74.6557 75.3808-71.58Q82.5832-68.5044 88.0339-63.0499Q93.4846-57.5954 96.5823-50.3785Q99.68-43.1616 99.68-34.9234Q99.68-26.6851 96.6043-19.4681Q93.5287-12.2513 88.0925-6.79682Q82.6563-1.34232 75.4393 1.73334Q68.2225 4.80899 59.94 4.80899ZM59.9765-15.7858Q65.2965-15.7858 69.6387-18.3691Q73.981-20.9524 76.5604-25.3219Q79.1399-29.6914 79.1399-35.0191Q79.1399-40.2844 76.5604-44.6449Q73.981-49.0054 69.6387-51.5887Q65.2965-54.1719 59.9765-54.1719Q54.6488-54.1719 50.2976-51.5887Q45.9463-49.0054 43.3447-44.6449Q40.7432-40.2844 40.7432-35.0191Q40.7432-29.6914 43.3447-25.3219Q45.9463-20.9524 50.2976-18.3691Q54.6488-15.7858 59.9765-15.7858Z"/>
  </g>
  <g id="Medium-M" transform="matrix(1 0 0 1 1687.08 1126)">
   <path d="M59.45 15.4772Q69.842 15.4772 78.9575 11.5479Q88.073 7.61856 95.0365 0.633747Q102-6.3511 105.955-15.4666Q109.911-24.5821 109.911-34.9312Q109.911-45.2803 105.955-54.3959Q102-63.5114 95.015-70.4962Q88.0302-77.481 78.9147-81.4103Q69.7992-85.3396 59.4073-85.3396Q49.0674-85.3396 39.9473-81.4103Q30.8272-77.481 23.8897-70.4962Q16.9523-63.5114 12.997-54.3959Q9.04166-45.2803 9.04166-34.9312Q9.04166-24.5821 12.997-15.4666Q16.9523-6.3511 23.9111 0.633747Q30.8699 7.61856 39.99 11.5479Q49.1102 15.4772 59.45 15.4772ZM59.45 5.56892Q51.0506 5.56892 43.7154 2.43796Q36.38-0.693016 30.8387-6.25575Q25.2974-11.8184 22.1618-19.1751Q19.0263-26.5318 19.0263-34.9312Q19.0263-43.3306 22.1404-50.6874Q25.2547-58.044 30.7959-63.6068Q36.3372-69.1694 43.6725-72.3004Q51.0079-75.4313 59.4073-75.4313Q67.8495-75.4313 75.1894-72.3004Q82.5293-69.1694 88.0875-63.6068Q93.6455-58.044 96.8025-50.6874Q99.9595-43.3306 99.9595-34.9312Q99.9595-26.5318 96.8285-19.1751Q93.6975-11.8184 88.1562-6.25575Q82.6149-0.693016 75.2582 2.43796Q67.9015 5.56892 59.45 5.56892ZM59.4929-15.8178Q64.8048-15.8178 69.143-18.3947Q73.4812-20.9717 76.0535-25.3363Q78.6258-29.7011 78.6258-35.0223Q78.6258-40.2812 76.0535-44.6408Q73.4812-49.0004 69.143-51.5773Q64.8048-54.1542 59.4929-54.1542Q54.1716-54.1542 49.8283-51.5773Q45.4849-49.0004 42.8866-44.6408Q40.2883-40.2812 40.2883-35.0223Q40.2883-29.7011 42.8866-25.3363Q45.4849-20.9717 49.8283-18.3947Q54.1716-15.8178 59.4929-15.8178Z"/>
  </g>
  <g id="Regular-M" transform="matrix(1 0 0 1 1391 1126)">
   <path d="M58.811 14.8278Q69.0628 14.8278 78.0629 10.948Q87.0629 7.06822 93.9419 0.163835Q100.821-6.74059 104.732-15.7406Q108.643-24.7407 108.643-34.9415Q108.643-45.1423 104.732-54.1425Q100.821-63.1425 93.9163-70.0468Q87.012-76.9513 78.0119-80.831Q69.0119-84.7108 58.76-84.7108Q48.5706-84.7108 39.5649-80.831Q30.5591-76.9513 23.7113-70.0468Q16.8636-63.1425 12.9526-54.1425Q9.04166-45.1423 9.04166-34.9415Q9.04166-24.7407 12.9526-15.7406Q16.8636-6.74059 23.7368 0.163835Q30.6101 7.06822 39.6158 10.948Q48.6215 14.8278 58.811 14.8278ZM58.811 6.56013Q50.2014 6.56013 42.6879 3.35702Q35.1742 0.153908 29.4959-5.55001Q23.8175-11.2538 20.6087-18.7928Q17.4-26.3319 17.4-34.9415Q17.4-43.5511 20.5833-51.0902Q23.7666-58.6292 29.4449-64.3331Q35.1233-70.0369 42.6368-73.24Q50.1505-76.4431 58.76-76.4431Q67.4206-76.4431 74.9398-73.24Q82.4591-70.0369 88.1573-64.3331Q93.8555-58.6292 97.0897-51.0902Q100.324-43.5511 100.324-34.9415Q100.324-26.3319 97.1208-18.7928Q93.9177-11.2538 88.2394-5.55001Q82.561 0.153908 75.0219 3.35702Q67.4829 6.56013 58.811 6.56013ZM58.862-15.8595Q64.1634-15.8595 68.4963-18.4282Q72.8293-20.9968 75.3923-25.3552Q77.9553-29.7137 77.9553-35.0265Q77.9553-40.277 75.3923-44.6355Q72.8293-48.9939 68.4963-51.5626Q64.1634-54.1311 58.862-54.1311Q53.5491-54.1311 49.2162-51.5626Q44.8832-48.9939 42.2891-44.6355Q39.6949-40.277 39.6949-35.0265Q39.6949-29.7137 42.2891-25.3552Q44.8832-20.9968 49.2162-18.4282Q53.5491-15.8595 58.862-15.8595Z"/>
  </g>
  <g id="Light-M" transform="matrix(1 0 0 1 1095.12 1126)">
   <path d="M57.983 13.9999Q68.0877 13.9999 76.9313 10.1937Q85.7749 6.38745 92.5435-0.397336Q99.312-7.18214 103.149-16.0258Q106.987-24.8695 106.987-34.9415Q106.987-45.0136 103.149-53.8572Q99.312-62.7009 92.5272-69.4857Q85.7424-76.2705 76.8988-80.0767Q68.0551-83.8829 57.9505-83.8829Q47.9082-83.8829 39.0497-80.0767Q30.1911-76.2705 23.4537-69.4857Q16.7164-62.7009 12.879-53.8572Q9.04166-45.0136 9.04166-34.9415Q9.04166-24.8695 12.879-16.0258Q16.7164-7.18214 23.47-0.397336Q30.2237 6.38745 39.0822 10.1937Q47.9408 13.9999 57.983 13.9999ZM57.983 7.68247Q49.1527 7.68247 41.4276 4.38736Q33.7023 1.09226 27.8583-4.76805Q22.0144-10.6282 18.7045-18.3697Q15.3945-26.1111 15.3945-34.9415Q15.3945-43.7719 18.6882-51.5133Q21.9819-59.2548 27.8258-65.1151Q33.6698-70.9753 41.3949-74.2704Q49.1201-77.5654 57.9505-77.5654Q66.8134-77.5654 74.5535-74.2704Q82.2935-70.9753 88.1389-65.1151Q93.9843-59.2548 97.3105-51.5133Q100.637-43.7719 100.637-34.9415Q100.637-26.1111 97.3416-18.3697Q94.0465-10.6282 88.2026-4.76805Q82.3586 1.09226 74.6171 4.38736Q66.8758 7.68247 57.983 7.68247ZM58.0157-16.1355Q63.2251-16.1355 67.512-18.6766Q71.799-21.2176 74.3252-25.5208Q76.8514-29.8241 76.8514-35.0633Q76.8514-40.2402 74.3252-44.5435Q71.799-48.8467 67.512-51.3878Q63.2251-53.9287 58.0157-53.9287Q52.7764-53.9287 48.4895-51.3878Q44.2025-48.8467 41.6451-44.5435Q39.0878-40.2402 39.0878-35.0633Q39.0878-29.8241 41.6451-25.5208Q44.2025-21.2176 48.4895-18.6766Q52.7764-16.1355 58.0157-16.1355Z"/>
  </g>
  <g id="Thin-M" transform="matrix(1 0 0 1 799.503 1126)">
   <path d="M56.888 12.9048Q66.7979 12.9048 75.4348 9.19597Q84.0715 5.48709 90.6941-1.13953Q97.3166-7.76612 101.057-16.403Q104.797-25.0398 104.797-34.9415Q104.797-44.8433 101.057-53.48Q97.3166-62.1169 90.69-68.7435Q84.0633-75.3701 75.4266-79.079Q66.7897-82.7878 56.8798-82.7878Q47.0322-82.7878 38.3683-79.079Q29.7044-75.3701 23.113-68.7435Q16.5217-62.1169 12.7817-53.48Q9.04166-44.8433 9.04166-34.9415Q9.04166-25.0398 12.7817-16.403Q16.5217-7.76612 23.1171-1.13953Q29.7127 5.48709 38.3765 9.19597Q47.0404 12.9048 56.888 12.9048ZM56.888 9.16685Q47.7656 9.16685 39.7607 5.75007Q31.7556 2.3333 25.6926-3.73385Q19.6297-9.80085 16.1859-17.81Q12.742-25.8191 12.742-34.9415Q12.742-44.0639 16.1818-52.073Q19.6215-60.0821 25.6844-66.1493Q31.7474-72.2163 39.7524-75.6331Q47.7574-79.0498 56.8798-79.0498Q66.0104-79.0498 74.0424-75.6331Q82.0745-72.2163 88.1145-66.1493Q94.1546-60.0821 97.6026-52.073Q101.05-44.0639 101.05-34.9415Q101.05-25.8191 97.6337-17.81Q94.2169-9.80085 88.1539-3.73385Q82.091 2.3333 74.0818 5.75007Q66.0727 9.16685 56.888 9.16685ZM56.8963-16.5005Q61.984-16.5005 66.2101-19.0051Q70.4363-21.5096 72.9138-25.7398Q75.3913-29.9701 75.3913-35.112Q75.3913-40.1916 72.9138-44.4218Q70.4363-48.6521 66.2101-51.1566Q61.984-53.6611 56.8963-53.6611Q51.7544-53.6611 47.5283-51.1566Q43.3021-48.6521 40.7934-44.4218Q38.2848-40.1916 38.2848-35.112Q38.2848-29.9701 40.7934-25.7398Q43.3021-21.5096 47.5283-19.0051Q51.7544-16.5005 56.8963-16.5005Z"/>
  </g>
  <g id="Ultralight-M" transform="matrix(1 0 0 1 503.353 1126)">
   <path d="M56.3272 12.344Q66.1374 12.344 74.6683 8.68495Q83.1991 5.02593 89.7468-1.51968Q96.2946-8.06524 99.9848-16.5962Q103.675-25.1271 103.675-34.9415Q103.675-44.7561 99.9848-53.2868Q96.2946-61.8177 89.7489-68.3634Q83.2033-74.9089 74.6725-78.568Q66.1416-82.2269 56.3314-82.2269Q46.5835-82.2269 38.0193-78.568Q29.4552-74.9089 22.9385-68.3634Q16.422-61.8177 12.7318-53.2868Q9.04166-44.7561 9.04166-34.9415Q9.04166-25.1271 12.7318-16.5962Q16.422-8.06524 22.9364-1.51968Q29.4509 5.02593 38.0151 8.68495Q46.5793 12.344 56.3272 12.344ZM56.3272 9.92715Q47.0552 9.92715 38.9069 6.44805Q30.7585 2.96895 24.5833-3.20413Q18.4083-9.37707 14.8959-17.5234Q11.3835-25.6695 11.3835-34.9415Q11.3835-44.2135 14.898-52.3596Q18.4125-60.5059 24.5876-66.679Q30.7628-72.8519 38.9112-76.3311Q47.0594-79.8101 56.3314-79.8101Q65.599-79.8101 73.7807-76.3311Q81.9623-72.8519 88.102-66.679Q94.2418-60.5059 97.7521-52.3596Q101.262-44.2135 101.262-34.9415Q101.262-25.6695 97.7833-17.5234Q94.3041-9.37707 88.1289-3.20413Q81.9539 2.96895 73.8076 6.44805Q65.6614 9.92715 56.3272 9.92715ZM56.3229-16.6874Q61.3483-16.6874 65.5433-19.1734Q69.7383-21.6592 72.191-25.852Q74.6435-30.0449 74.6435-35.1369Q74.6435-40.1667 72.191-44.3595Q69.7383-48.5524 65.5433-51.0382Q61.3483-53.524 56.3229-53.524Q51.2309-53.524 47.0359-51.0382Q42.841-48.5524 40.3572-44.3595Q37.8735-40.1667 37.8735-35.1369Q37.8735-30.0449 40.3572-25.852Q42.841-21.6592 47.0359-19.1734Q51.2309-16.6874 56.3229-16.6874Z"/>
  </g>
  <g id="Black-S" transform="matrix(1 0 0 1 2884.32 696)">
   <path d="M49.0781 7.03711Q57.7695 7.03711 65.3623 3.76562Q72.9551 0.494141 78.7412-5.29199Q84.5273-11.0781 87.7988-18.6709Q91.0703-26.2637 91.0703-34.9551Q91.0703-43.6465 87.7988-51.2393Q84.5273-58.832 78.7412-64.6182Q72.9551-70.4043 65.3623-73.6758Q57.7695-76.9473 49.0781-76.9473Q40.3867-76.9473 32.7939-73.6758Q25.2012-70.4043 19.415-64.6182Q13.6289-58.832 10.3574-51.2393Q7.08594-43.6465 7.08594-34.9551Q7.08594-26.2637 10.3574-18.6709Q13.6289-11.0781 19.415-5.29199Q25.2012 0.494141 32.7939 3.76562Q40.3867 7.03711 49.0781 7.03711ZM49.0781-7.12305Q43.3164-7.12305 38.2627-9.2959Q33.209-11.4688 29.4004-15.2773Q25.5918-19.0859 23.4189-24.1396Q21.2461-29.1934 21.2461-34.9551Q21.2461-40.7168 23.4189-45.7705Q25.5918-50.8242 29.4004-54.6328Q33.209-58.4414 38.2627-60.6143Q43.3164-62.7871 49.0781-62.7871Q54.8398-62.7871 59.8936-60.6143Q64.9473-58.4414 68.7559-54.6328Q72.5645-50.8242 74.7373-45.7705Q76.9102-40.7168 76.9102-34.9551Q76.9102-29.1934 74.7373-24.1396Q72.5645-19.0859 68.7559-15.2773Q64.9473-11.4688 59.8936-9.2959Q54.8398-7.12305 49.0781-7.12305ZM49.0781-19.8672Q53.2773-19.8672 56.6953-21.918Q60.1133-23.9688 62.1641-27.4111Q64.2148-30.8535 64.2148-35.0527Q64.2148-39.2031 62.1641-42.6211Q60.1133-46.0391 56.6953-48.0898Q53.2773-50.1406 49.0781-50.1406Q44.8789-50.1406 41.4365-48.0898Q37.9941-46.0391 35.9434-42.6211Q33.8926-39.2031 33.8926-35.0527Q33.8926-30.8535 35.9434-27.4111Q37.9941-23.9688 41.4365-21.918Q44.8789-19.8672 49.0781-19.8672Z"/>
  </g>
  <g id="Heavy-S" transform="matrix(1 0 0 1 2588.21 696)">
   <path d="M48.4673 6.41479Q57.0204 6.41479 64.5037 3.1894Q71.987-0.0359838 77.6925-5.74721Q83.3979-11.4584 86.6291-18.9417Q89.8602-26.425 89.8602-34.9666Q89.8602-43.5082 86.6291-50.9915Q83.3979-58.4748 77.6867-64.186Q71.9755-69.8972 64.4922-73.1226Q57.0089-76.348 48.4558-76.348Q39.9142-76.348 32.4309-73.1226Q24.9477-69.8972 19.2479-64.186Q13.5482-58.4748 10.3171-50.9915Q7.08594-43.5082 7.08594-34.9666Q7.08594-26.425 10.3171-18.9417Q13.5482-11.4584 19.2537-5.74721Q24.9592-0.0359838 32.4424 3.1894Q39.9257 6.41479 48.4673 6.41479ZM48.4673-6.15499Q42.4982-6.15499 37.2716-8.39699Q32.045-10.639 28.1039-14.5859Q24.1628-18.5327 21.9207-23.7651Q19.6788-28.9975 19.6788-34.9666Q19.6788-40.9358 21.915-46.1681Q24.1512-51.4004 28.0924-55.3473Q32.0335-59.2942 37.2601-61.5362Q42.4866-63.7782 48.4558-63.7782Q54.4365-63.7782 59.6631-61.5362Q64.8897-59.2942 68.8366-55.3473Q72.7835-51.4004 75.0312-46.1681Q77.279-40.9358 77.279-34.9666Q77.279-28.9975 75.0369-23.7651Q72.795-18.5327 68.8538-14.5859Q64.9127-10.639 59.6804-8.39699Q54.448-6.15499 48.4673-6.15499ZM48.4788-19.8787Q52.678-19.8787 56.096-21.9238Q59.514-23.9688 61.5591-27.4111Q63.604-30.8535 63.604-35.0527Q63.604-39.2031 61.5591-42.6269Q59.514-46.0506 56.096-48.0956Q52.678-50.1406 48.4788-50.1406Q44.2796-50.1406 40.843-48.0956Q37.4064-46.0506 35.3556-42.6269Q33.3048-39.2031 33.3048-35.0527Q33.3048-30.8535 35.3556-27.4111Q37.4064-23.9688 40.843-21.9238Q44.2796-19.8787 48.4788-19.8787Z"/>
  </g>
  <g id="Bold-S" transform="matrix(1 0 0 1 2292.18 696)">
   <path d="M47.7841 5.71875Q56.1826 5.71875 63.5434 2.54492Q70.9043-0.628904 76.5195-6.25634Q82.1347-11.8838 85.3208-19.2447Q88.5068-26.6055 88.5068-34.9795Q88.5068-43.3535 85.3208-50.7144Q82.1347-58.0752 76.5073-63.7027Q70.8799-69.3301 63.519-72.5039Q56.1582-75.6778 47.7597-75.6778Q39.3857-75.6778 32.0249-72.5039Q24.6641-69.3301 19.061-63.7027Q13.458-58.0752 10.272-50.7144Q7.08594-43.3535 7.08594-34.9795Q7.08594-26.6055 10.272-19.2447Q13.458-11.8838 19.0732-6.25634Q24.6885-0.628904 32.0493 2.54492Q39.4101 5.71875 47.7841 5.71875ZM47.7841-5.07226Q41.583-5.07226 36.1631-7.3916Q30.7431-9.71096 26.6538-13.8125Q22.5644-17.914 20.2451-23.3462Q17.9258-28.7783 17.9258-34.9795Q17.9258-41.1806 20.2329-46.6128Q22.54-52.0449 26.6294-56.1465Q30.7187-60.248 36.1386-62.5674Q41.5586-64.8867 47.7597-64.8867Q53.9853-64.8867 59.4053-62.5674Q64.8252-60.248 68.9268-56.1465Q73.0283-52.0449 75.3598-46.6128Q77.6914-41.1806 77.6914-34.9795Q77.6914-28.7783 75.372-23.3462Q73.0527-17.914 68.9634-13.8125Q64.874-9.71096 59.4419-7.3916Q54.0097-5.07226 47.7841-5.07226ZM47.8086-19.8916Q52.0078-19.8916 55.4257-21.9302Q58.8437-23.9688 60.8823-27.4111Q62.9209-30.8535 62.9209-35.0527Q62.9209-39.2031 60.8823-42.6333Q58.8437-46.0635 55.4257-48.102Q52.0078-50.1406 47.8086-50.1406Q43.6093-50.1406 40.1792-48.102Q36.749-46.0635 34.6982-42.6333Q32.6474-39.2031 32.6474-35.0527Q32.6474-30.8535 34.6982-27.4111Q36.749-23.9688 40.1792-21.9302Q43.6093-19.8916 47.8086-19.8916Z"/>
  </g>
  <g id="Semibold-S" transform="matrix(1 0 0 1 1995.94 696)">
   <path d="M47.3132 5.23887Q55.605 5.23887 62.8814 2.10059Q70.1578-1.03769 75.7109-6.60737Q81.2639-12.1771 84.4188-19.4535Q87.5738-26.7299 87.5738-34.9884Q87.5738-43.2468 84.4188-50.5233Q81.2639-57.7997 75.6942-63.3694Q70.1245-68.9391 62.8481-72.0773Q55.5717-75.2156 47.2799-75.2156Q39.0214-75.2156 31.745-72.0773Q24.4686-68.9391 18.9321-63.3694Q13.3958-57.7997 10.2409-50.5233Q7.08594-43.2468 7.08594-34.9884Q7.08594-26.7299 10.2409-19.4535Q13.3958-12.1771 18.9488-6.60737Q24.5019-1.03769 31.7783 2.10059Q39.0547 5.23887 47.3132 5.23887ZM47.3132-4.32578Q40.952-4.32578 35.3988-6.69843Q29.8456-9.07111 25.654-13.2793Q21.4625-17.4875 19.0898-23.0573Q16.7172-28.6273 16.7172-34.9884Q16.7172-41.3495 19.0732-46.9194Q21.4292-52.4892 25.6208-56.6975Q29.8123-60.9057 35.3655-63.2783Q40.9188-65.651 47.2799-65.651Q53.6743-65.651 59.2276-63.2783Q64.7808-60.9057 68.989-56.6975Q73.1972-52.4892 75.5865-46.9194Q77.9758-41.3495 77.9758-34.9884Q77.9758-28.6273 75.6031-23.0573Q73.2305-17.4875 69.0389-13.2793Q64.8474-9.07111 59.2775-6.69843Q53.7076-4.32578 47.3132-4.32578ZM47.3465-19.9005Q51.5457-19.9005 54.9636-21.9346Q58.3816-23.9688 60.4158-27.4111Q62.4499-30.8535 62.4499-35.0527Q62.4499-39.2031 60.4158-42.6377Q58.3816-46.0724 54.9636-48.1065Q51.5457-50.1406 47.3465-50.1406Q43.1472-50.1406 39.7215-48.1065Q36.2958-46.0724 34.245-42.6377Q32.1942-39.2031 32.1942-35.0527Q32.1942-30.8535 34.245-27.4111Q36.2958-23.9688 39.7215-21.9346Q43.1472-19.9005 47.3465-19.9005Z"/>
  </g>
  <g id="Medium-S" transform="matrix(1 0 0 1 1699.58 696)">
   <path d="M46.956 4.875Q55.167 4.875 62.3794 1.76367Q69.5918-1.34765 75.0977-6.87353Q80.6035-12.3994 83.7349-19.6119Q86.8662-26.8243 86.8662-34.9951Q86.8662-43.166 83.7349-50.3785Q80.6035-57.5908 75.0776-63.1167Q69.5518-68.6426 62.3394-71.7539Q55.127-74.8652 46.916-74.8652Q38.7451-74.8652 31.5327-71.7539Q24.3204-68.6426 18.8344-63.1167Q13.3486-57.5908 10.2173-50.3785Q7.08594-43.166 7.08594-34.9951Q7.08594-26.8243 10.2173-19.6119Q13.3486-12.3994 18.8544-6.87353Q24.3604-1.34765 31.5728 1.76367Q38.7852 4.875 46.956 4.875ZM46.956-3.75976Q40.4736-3.75976 34.8194-6.17285Q29.165-8.58594 24.896-12.875Q20.6269-17.1641 18.2139-22.8383Q15.8008-28.5127 15.8008-34.9951Q15.8008-41.4775 18.1939-47.1519Q20.5869-52.8261 24.856-57.1153Q29.125-61.4043 34.7793-63.8174Q40.4336-66.2304 46.916-66.2304Q53.4385-66.2304 59.0928-63.8174Q64.7471-61.4043 69.0362-57.1153Q73.3252-52.8261 75.7583-47.1519Q78.1914-41.4775 78.1914-34.9951Q78.1914-28.5127 75.7783-22.8383Q73.3652-17.1641 69.0962-12.875Q64.8272-8.58594 59.1528-6.17285Q53.4785-3.75976 46.956-3.75976ZM46.9961-19.9072Q51.1953-19.9072 54.6132-21.938Q58.0312-23.9688 60.062-27.4111Q62.0928-30.8535 62.0928-35.0527Q62.0928-39.2031 60.062-42.6411Q58.0312-46.0791 54.6132-48.1099Q51.1953-50.1406 46.9961-50.1406Q42.7968-50.1406 39.3745-48.1099Q35.9521-46.0791 33.9014-42.6411Q31.8506-39.2031 31.8506-35.0527Q31.8506-30.8535 33.9014-27.4111Q35.9521-23.9688 39.3745-21.938Q42.7968-19.9072 46.9961-19.9072Z"/>
  </g>
  <g id="Regular-S" transform="matrix(1 0 0 1 1403.33 696)">
   <path d="M46.4902 4.40039Q54.5957 4.40039 61.7246 1.32422Q68.8535-1.75195 74.2979-7.2207Q79.7422-12.6895 82.8428-19.8184Q85.9434-26.9473 85.9434-35.0039Q85.9434-43.0605 82.8428-50.1895Q79.7422-57.3184 74.2734-62.7871Q68.8047-68.2559 61.6758-71.332Q54.5469-74.4082 46.4414-74.4082Q38.3848-74.4082 31.2559-71.332Q24.127-68.2559 18.707-62.7871Q13.2871-57.3184 10.1865-50.1895Q7.08594-43.0605 7.08594-35.0039Q7.08594-26.9473 10.1865-19.8184Q13.2871-12.6895 18.7314-7.2207Q24.1758-1.75195 31.3047 1.32422Q38.4336 4.40039 46.4902 4.40039ZM46.4902-3.02148Q39.8496-3.02148 34.0635-5.4873Q28.2773-7.95312 23.9072-12.3477Q19.5371-16.7422 17.0713-22.5527Q14.6055-28.3633 14.6055-35.0039Q14.6055-41.6445 17.0469-47.4551Q19.4883-53.2656 23.8584-57.6602Q28.2285-62.0547 34.0146-64.5205Q39.8008-66.9863 46.4414-66.9863Q53.1309-66.9863 58.917-64.5205Q64.7031-62.0547 69.0977-57.6602Q73.4922-53.2656 75.9824-47.4551Q78.4727-41.6445 78.4727-35.0039Q78.4727-28.3633 76.0068-22.5527Q73.541-16.7422 69.1709-12.3477Q64.8008-7.95312 58.9902-5.4873Q53.1797-3.02148 46.4902-3.02148ZM46.5391-19.916Q50.7383-19.916 54.1562-21.9424Q57.5742-23.9688 59.6006-27.4111Q61.627-30.8535 61.627-35.0527Q61.627-39.2031 59.6006-42.6455Q57.5742-46.0879 54.1562-48.1143Q50.7383-50.1406 46.5391-50.1406Q42.3398-50.1406 38.9219-48.1143Q35.5039-46.0879 33.4531-42.6455Q31.4023-39.2031 31.4023-35.0527Q31.4023-30.8535 33.4531-27.4111Q35.5039-23.9688 38.9219-21.9424Q42.3398-19.916 46.5391-19.916Z"/>
  </g>
  <g id="Light-S" transform="matrix(1 0 0 1 1107.35 696)">
   <path d="M45.7578 3.66797Q53.7331 3.66797 60.7236 0.656902Q67.7142-2.35416 73.0609-7.71712Q78.4076-13.0801 81.4431-20.0707Q84.4785-27.0612 84.4785-35.0039Q84.4785-42.9466 81.4431-49.9372Q78.4076-56.9278 73.0446-62.2907Q67.6816-67.6537 60.6911-70.6647Q53.7005-73.6758 45.7253-73.6758Q37.7989-73.6758 30.8002-70.6647Q23.8015-67.6537 18.4791-62.2907Q13.1569-56.9278 10.1214-49.9372Q7.08594-42.9466 7.08594-35.0039Q7.08594-27.0612 10.1214-20.0707Q13.1569-13.0801 18.4954-7.71712Q23.834-2.35416 30.8327 0.656902Q37.8314 3.66797 45.7578 3.66797ZM45.7578-2.02864Q38.9219-2.02864 32.9486-4.57584Q26.9752-7.12304 22.4586-11.656Q17.9421-16.1888 15.3867-22.1784Q12.8314-28.168 12.8314-35.0039Q12.8314-41.8398 15.3705-47.8294Q17.9095-53.819 22.4261-58.3519Q26.9427-62.8848 32.916-65.432Q38.8893-67.9791 45.7253-67.9791Q52.5938-67.9791 58.5752-65.432Q64.5566-62.8848 69.0814-58.3519Q73.6061-53.819 76.1777-47.8294Q78.7494-41.8398 78.7494-35.0039Q78.7494-28.168 76.2021-22.1784Q73.6549-16.1888 69.1383-11.656Q64.6218-7.12304 58.6321-4.57584Q52.6426-2.02864 45.7578-2.02864ZM45.7904-20.1601Q49.9082-20.1601 53.2854-22.1621Q56.6627-24.1641 58.6566-27.5576Q60.6504-30.9512 60.6504-35.0853Q60.6504-39.1706 58.6566-42.5641Q56.6627-45.9577 53.2854-47.9597Q49.9082-49.9616 45.7904-49.9616Q41.6562-49.9616 38.279-47.9597Q34.9017-45.9577 32.8834-42.5641Q30.8652-39.1706 30.8652-35.0853Q30.8652-30.9512 32.8834-27.5576Q34.9017-24.1641 38.279-22.1621Q41.6562-20.1601 45.7904-20.1601Z"/>
  </g>
  <g id="Thin-S" transform="matrix(1 0 0 1 811.609 696)">
   <path d="M44.7891 2.69928Q52.5922 2.69928 59.3998-0.22568Q66.2073-3.15064 71.4249-8.37368Q76.6424-13.5967 79.5918-20.4043Q82.5411-27.2119 82.5411-35.0039Q82.5411-42.796 79.5918-49.6035Q76.6424-56.4111 71.4193-61.6342Q66.1963-66.8572 59.3888-69.7821Q52.5811-72.7071 44.7781-72.7071Q37.0239-72.7071 30.1974-69.7821Q23.3709-66.8572 18.1778-61.6342Q12.9847-56.4111 10.0353-49.6035Q7.08594-42.796 7.08594-35.0039Q7.08594-27.2119 10.0353-20.4043Q12.9847-13.5967 18.1833-8.37368Q23.3819-3.15064 30.2084-0.22568Q37.0349 2.69928 44.7891 2.69928ZM44.7891-0.715536Q37.6949-0.715536 31.4741-3.37037Q25.2531-6.0252 20.5428-10.7411Q15.8325-15.4569 13.1588-21.6833Q10.485-27.9096 10.485-35.0039Q10.485-42.0982 13.1532-48.3245Q15.8215-54.5509 20.5318-59.2668Q25.2421-63.9826 31.463-66.6375Q37.6838-69.2922 44.7781-69.2922Q51.8834-69.2922 58.1231-66.6375Q64.3629-63.9826 69.0598-59.2668Q73.7568-54.5509 76.4361-48.3245Q79.1153-42.0982 79.1153-35.0039Q79.1153-27.9096 76.4605-21.6833Q73.8056-15.4569 69.0953-10.7411Q64.385-6.0252 58.1586-3.37037Q51.9322-0.715536 44.7891-0.715536ZM44.8002-20.483Q48.8103-20.483 52.1338-22.4527Q55.4572-24.4224 57.4081-27.7514Q59.3588-31.0803 59.3588-35.1283Q59.3588-39.1275 57.4081-42.4565Q55.4572-45.7855 52.1338-47.7552Q48.8103-49.7248 44.8002-49.7248Q40.7522-49.7248 37.4287-47.7552Q34.1052-45.7855 32.13-42.4565Q30.1548-39.1275 30.1548-35.1283Q30.1548-31.0803 32.13-27.7514Q34.1052-24.4224 37.4287-22.4527Q40.7522-20.483 44.8002-20.483Z"/>
  </g>
  <g id="Ultralight-S" transform="matrix(1 0 0 1 515.394 696)">
   <path d="M44.293 2.20312Q52.0078 2.20312 58.7217-0.677734Q65.4355-3.55859 70.5869-8.70996Q75.7383-13.8613 78.6436-20.5752Q81.5488-27.2891 81.5488-35.0039Q81.5488-42.7188 78.6436-49.4326Q75.7383-56.1465 70.5869-61.2979Q65.4355-66.4492 58.7217-69.3301Q52.0078-72.2109 44.293-72.2109Q36.627-72.2109 29.8887-69.3301Q23.1504-66.4492 18.0234-61.2979Q12.8965-56.1465 9.99121-49.4326Q7.08594-42.7188 7.08594-35.0039Q7.08594-27.2891 9.99121-20.5752Q12.8965-13.8613 18.0234-8.70996Q23.1504-3.55859 29.8887-0.677734Q36.627 2.20312 44.293 2.20312ZM44.293-0.042969Q37.0664-0.042969 30.7188-2.75293Q24.3711-5.46289 19.5615-10.2725Q14.752-15.082 12.0176-21.4297Q9.2832-27.7773 9.2832-35.0039Q9.2832-42.2305 12.0176-48.5781Q14.752-54.9258 19.5615-59.7354Q24.3711-64.5449 30.7188-67.2549Q37.0664-69.9648 44.293-69.9648Q51.5195-69.9648 57.8916-67.2549Q64.2637-64.5449 69.0488-59.7354Q73.834-54.9258 76.5684-48.5781Q79.3027-42.2305 79.3027-35.0039Q79.3027-27.7773 76.5928-21.4297Q73.8828-15.082 69.0732-10.2725Q64.2637-5.46289 57.916-2.75293Q51.5684-0.042969 44.293-0.042969ZM44.293-20.6484Q48.248-20.6484 51.5439-22.6016Q54.8398-24.5547 56.7686-27.8506Q58.6973-31.1465 58.6973-35.1504Q58.6973-39.1055 56.7686-42.4014Q54.8398-45.6973 51.5439-47.6504Q48.248-49.6035 44.293-49.6035Q40.2891-49.6035 36.9932-47.6504Q33.6973-45.6973 31.7441-42.4014Q29.791-39.1055 29.791-35.1504Q29.791-31.1465 31.7441-27.8506Q33.6973-24.5547 36.9932-22.6016Q40.2891-20.6484 44.293-20.6484Z"/>
  </g>
 </g>
</svg>
