<?xml version="1.0" encoding="UTF-8"?>
<!--Generator: Apple Native CoreSVG 149-->
<!DOCTYPE svg
PUBLIC "-//W3C//DTD SVG 1.1//EN"
       "http://www.w3.org/Graphics/SVG/1.1/DTD/svg11.dtd">
<svg version="1.1" xmlns="http://www.w3.org/2000/svg" xmlns:xlink="http://www.w3.org/1999/xlink" width="3300" height="2200">
 <!--glyph: "", point size: 100.0, font version: "17.0d9e1", template writer version: "59"-->
 <g id="Notes">
  <rect height="2200" id="artboard" style="fill:white;opacity:1" width="3300" x="0" y="0"/>
  <line style="fill:none;stroke:black;opacity:1;stroke-width:0.5;" x1="263" x2="3036" y1="292" y2="292"/>
  <text style="stroke:none;fill:black;font-family:sans-serif;font-size:13;font-weight:bold;" transform="matrix(1 0 0 1 263 322)">Weight/Scale Variations</text>
  <text style="stroke:none;fill:black;font-family:sans-serif;font-size:13;text-anchor:middle;" transform="matrix(1 0 0 1 559.711 322)">Ultralight</text>
  <text style="stroke:none;fill:black;font-family:sans-serif;font-size:13;text-anchor:middle;" transform="matrix(1 0 0 1 856.422 322)">Thin</text>
  <text style="stroke:none;fill:black;font-family:sans-serif;font-size:13;text-anchor:middle;" transform="matrix(1 0 0 1 1153.13 322)">Light</text>
  <text style="stroke:none;fill:black;font-family:sans-serif;font-size:13;text-anchor:middle;" transform="matrix(1 0 0 1 1449.84 322)">Regular</text>
  <text style="stroke:none;fill:black;font-family:sans-serif;font-size:13;text-anchor:middle;" transform="matrix(1 0 0 1 1746.56 322)">Medium</text>
  <text style="stroke:none;fill:black;font-family:sans-serif;font-size:13;text-anchor:middle;" transform="matrix(1 0 0 1 2043.27 322)">Semibold</text>
  <text style="stroke:none;fill:black;font-family:sans-serif;font-size:13;text-anchor:middle;" transform="matrix(1 0 0 1 2339.98 322)">Bold</text>
  <text style="stroke:none;fill:black;font-family:sans-serif;font-size:13;text-anchor:middle;" transform="matrix(1 0 0 1 2636.69 322)">Heavy</text>
  <text style="stroke:none;fill:black;font-family:sans-serif;font-size:13;text-anchor:middle;" transform="matrix(1 0 0 1 2933.4 322)">Black</text>
  <line style="fill:none;stroke:black;opacity:1;stroke-width:0.5;" x1="263" x2="3036" y1="1903" y2="1903"/>
  <g transform="matrix(1 0 0 1 263 1933)">
   <path d="M9.24805 0.830078Q10.8691 0.830078 12.2949 0.214844Q13.7207-0.400391 14.8096-1.49414Q15.8984-2.58789 16.5186-4.01367Q17.1387-5.43945 17.1387-7.05078Q17.1387-8.66211 16.5186-10.0879Q15.8984-11.5137 14.8047-12.6074Q13.7109-13.7012 12.2852-14.3164Q10.8594-14.9316 9.23828-14.9316Q7.62695-14.9316 6.20117-14.3164Q4.77539-13.7012 3.69141-12.6074Q2.60742-11.5137 1.9873-10.0879Q1.36719-8.66211 1.36719-7.05078Q1.36719-5.43945 1.9873-4.01367Q2.60742-2.58789 3.69629-1.49414Q4.78516-0.400391 6.21094 0.214844Q7.63672 0.830078 9.24805 0.830078ZM9.24805-0.654297Q7.91992-0.654297 6.7627-1.14746Q5.60547-1.64062 4.73145-2.51953Q3.85742-3.39844 3.36426-4.56055Q2.87109-5.72266 2.87109-7.05078Q2.87109-8.37891 3.35938-9.54102Q3.84766-10.7031 4.72168-11.582Q5.5957-12.4609 6.75293-12.9541Q7.91016-13.4473 9.23828-13.4473Q10.5762-13.4473 11.7334-12.9541Q12.8906-12.4609 13.7695-11.582Q14.6484-10.7031 15.1465-9.54102Q15.6445-8.37891 15.6445-7.05078Q15.6445-5.72266 15.1514-4.56055Q14.6582-3.39844 13.7842-2.51953Q12.9102-1.64062 11.748-1.14746Q10.5859-0.654297 9.24805-0.654297ZM5.83984-7.04102Q5.83984-6.71875 6.04492-6.51855Q6.25-6.31836 6.5918-6.31836L8.50586-6.31836L8.50586-4.39453Q8.50586-4.0625 8.70605-3.85742Q8.90625-3.65234 9.22852-3.65234Q9.56055-3.65234 9.76562-3.85742Q9.9707-4.0625 9.9707-4.39453L9.9707-6.31836L11.8945-6.31836Q12.2266-6.31836 12.4316-6.51855Q12.6367-6.71875 12.6367-7.04102Q12.6367-7.37305 12.4316-7.57812Q12.2266-7.7832 11.8945-7.7832L9.9707-7.7832L9.9707-9.69727Q9.9707-10.0391 9.76562-10.2441Q9.56055-10.4492 9.22852-10.4492Q8.90625-10.4492 8.70605-10.2441Q8.50586-10.0391 8.50586-9.69727L8.50586-7.7832L6.5918-7.7832Q6.25-7.7832 6.04492-7.57812Q5.83984-7.37305 5.83984-7.04102Z"/>
  </g>
  <g transform="matrix(1 0 0 1 281.867 1933)">
   <path d="M11.709 2.91016Q13.75 2.91016 15.5518 2.12891Q17.3535 1.34766 18.7305-0.0292969Q20.1074-1.40625 20.8887-3.20801Q21.6699-5.00977 21.6699-7.05078Q21.6699-9.0918 20.8887-10.8936Q20.1074-12.6953 18.7305-14.0723Q17.3535-15.4492 15.5469-16.2305Q13.7402-17.0117 11.6992-17.0117Q9.6582-17.0117 7.85645-16.2305Q6.05469-15.4492 4.68262-14.0723Q3.31055-12.6953 2.5293-10.8936Q1.74805-9.0918 1.74805-7.05078Q1.74805-5.00977 2.5293-3.20801Q3.31055-1.40625 4.6875-0.0292969Q6.06445 1.34766 7.86621 2.12891Q9.66797 2.91016 11.709 2.91016ZM11.709 1.25Q9.98047 1.25 8.47656 0.605469Q6.97266-0.0390625 5.83496-1.17676Q4.69727-2.31445 4.05762-3.81836Q3.41797-5.32227 3.41797-7.05078Q3.41797-8.7793 4.05762-10.2832Q4.69727-11.7871 5.83008-12.9297Q6.96289-14.0723 8.4668-14.7119Q9.9707-15.3516 11.6992-15.3516Q13.4277-15.3516 14.9316-14.7119Q16.4355-14.0723 17.5781-12.9297Q18.7207-11.7871 19.3652-10.2832Q20.0098-8.7793 20.0098-7.05078Q20.0098-5.32227 19.3701-3.81836Q18.7305-2.31445 17.5928-1.17676Q16.4551-0.0390625 14.9463 0.605469Q13.4375 1.25 11.709 1.25ZM7.39258-7.04102Q7.39258-6.68945 7.62695-6.46484Q7.86133-6.24023 8.23242-6.24023L10.8789-6.24023L10.8789-3.57422Q10.8789-3.21289 11.1035-2.9834Q11.3281-2.75391 11.6797-2.75391Q12.0508-2.75391 12.2852-2.9834Q12.5195-3.21289 12.5195-3.57422L12.5195-6.24023L15.1758-6.24023Q15.5371-6.24023 15.7715-6.46484Q16.0059-6.68945 16.0059-7.04102Q16.0059-7.41211 15.7715-7.6416Q15.5371-7.87109 15.1758-7.87109L12.5195-7.87109L12.5195-10.5176Q12.5195-10.8984 12.2852-11.1279Q12.0508-11.3574 11.6797-11.3574Q11.3281-11.3574 11.1035-11.1279Q10.8789-10.8984 10.8789-10.5176L10.8789-7.87109L8.23242-7.87109Q7.85156-7.87109 7.62207-7.6416Q7.39258-7.41211 7.39258-7.04102Z"/>
  </g>
  <g transform="matrix(1 0 0 1 305.646 1933)">
   <path d="M14.9707 5.66406Q17.0605 5.66406 18.96 5.01465Q20.8594 4.36523 22.4512 3.19336Q24.043 2.02148 25.2197 0.429688Q26.3965-1.16211 27.0459-3.06641Q27.6953-4.9707 27.6953-7.05078Q27.6953-9.14062 27.0459-11.04Q26.3965-12.9395 25.2197-14.5312Q24.043-16.123 22.4512-17.2998Q20.8594-18.4766 18.9551-19.126Q17.0508-19.7754 14.9609-19.7754Q12.8711-19.7754 10.9717-19.126Q9.07227-18.4766 7.48535-17.2998Q5.89844-16.123 4.72168-14.5312Q3.54492-12.9395 2.90039-11.04Q2.25586-9.14062 2.25586-7.05078Q2.25586-4.9707 2.90527-3.06641Q3.55469-1.16211 4.72656 0.429688Q5.89844 2.02148 7.49023 3.19336Q9.08203 4.36523 10.9814 5.01465Q12.8809 5.66406 14.9707 5.66406ZM14.9707 3.84766Q13.1641 3.84766 11.5283 3.2959Q9.89258 2.74414 8.53516 1.74805Q7.17773 0.751953 6.17676-0.610352Q5.17578-1.97266 4.62891-3.6084Q4.08203-5.24414 4.08203-7.05078Q4.08203-8.86719 4.62891-10.5029Q5.17578-12.1387 6.17188-13.501Q7.16797-14.8633 8.52539-15.8594Q9.88281-16.8555 11.5186-17.4023Q13.1543-17.9492 14.9609-17.9492Q16.7773-17.9492 18.4131-17.4023Q20.0488-16.8555 21.4111-15.8594Q22.7734-14.8633 23.7695-13.501Q24.7656-12.1387 25.3174-10.5029Q25.8691-8.86719 25.8691-7.05078Q25.8789-5.24414 25.332-3.6084Q24.7852-1.97266 23.7842-0.610352Q22.7832 0.751953 21.4209 1.74805Q20.0586 2.74414 18.4229 3.2959Q16.7871 3.84766 14.9707 3.84766ZM9.45312-7.04102Q9.45312-6.66016 9.71191-6.41113Q9.9707-6.16211 10.3711-6.16211L14.0625-6.16211L14.0625-2.46094Q14.0625-2.06055 14.3115-1.80664Q14.5605-1.55273 14.9414-1.55273Q15.3516-1.55273 15.6055-1.80664Q15.8594-2.06055 15.8594-2.46094L15.8594-6.16211L19.5605-6.16211Q19.9609-6.16211 20.2148-6.41113Q20.4688-6.66016 20.4688-7.04102Q20.4688-7.45117 20.2148-7.70508Q19.9609-7.95898 19.5605-7.95898L15.8594-7.95898L15.8594-11.6504Q15.8594-12.0605 15.6055-12.3145Q15.3516-12.5684 14.9414-12.5684Q14.5605-12.5684 14.3115-12.3096Q14.0625-12.0508 14.0625-11.6504L14.0625-7.95898L10.3711-7.95898Q9.96094-7.95898 9.70703-7.70508Q9.45312-7.45117 9.45312-7.04102Z"/>
  </g>
  <text style="stroke:none;fill:black;font-family:sans-serif;font-size:13;font-weight:bold;" transform="matrix(1 0 0 1 263 1953)">Design Variations</text>
  <text style="stroke:none;fill:black;font-family:sans-serif;font-size:13;" transform="matrix(1 0 0 1 263 1971)">Symbols are supported in up to nine weights and three scales.</text>
  <text style="stroke:none;fill:black;font-family:sans-serif;font-size:13;" transform="matrix(1 0 0 1 263 1989)">For optimal layout with text and other symbols, vertically align</text>
  <text style="stroke:none;fill:black;font-family:sans-serif;font-size:13;" transform="matrix(1 0 0 1 263 2007)">symbols with the adjacent text.</text>
  <line style="fill:none;stroke:#00AEEF;stroke-width:0.5;opacity:1.0;" x1="776" x2="776" y1="1919" y2="1933"/>
  <g transform="matrix(1 0 0 1 776 1933)">
   <path d="M3.31055 0.15625Q3.70117 0.15625 3.91602-0.00976562Q4.13086-0.175781 4.26758-0.585938L5.52734-4.0332L11.2891-4.0332L12.5488-0.585938Q12.6855-0.175781 12.9004-0.00976562Q13.1152 0.15625 13.4961 0.15625Q13.8867 0.15625 14.1162-0.0585938Q14.3457-0.273438 14.3457-0.644531Q14.3457-0.869141 14.2383-1.17188L9.6582-13.3691Q9.48242-13.8184 9.17969-14.043Q8.87695-14.2676 8.4082-14.2676Q7.5-14.2676 7.17773-13.3789L2.59766-1.16211Q2.49023-0.859375 2.49023-0.634766Q2.49023-0.263672 2.70996-0.0537109Q2.92969 0.15625 3.31055 0.15625ZM6.00586-5.51758L8.37891-12.0898L8.42773-12.0898L10.8008-5.51758Z"/>
  </g>
  <line style="fill:none;stroke:#00AEEF;stroke-width:0.5;opacity:1.0;" x1="793.197" x2="793.197" y1="1919" y2="1933"/>
  <text style="stroke:none;fill:black;font-family:sans-serif;font-size:13;font-weight:bold;" transform="matrix(1 0 0 1 776 1953)">Margins</text>
  <text style="stroke:none;fill:black;font-family:sans-serif;font-size:13;" transform="matrix(1 0 0 1 776 1971)">Leading and trailing margins on the left and right side of each symbol</text>
  <text style="stroke:none;fill:black;font-family:sans-serif;font-size:13;" transform="matrix(1 0 0 1 776 1989)">can be adjusted by modifying the x-location of the margin guidelines.</text>
  <text style="stroke:none;fill:black;font-family:sans-serif;font-size:13;" transform="matrix(1 0 0 1 776 2007)">Modifications are automatically applied proportionally to all</text>
  <text style="stroke:none;fill:black;font-family:sans-serif;font-size:13;" transform="matrix(1 0 0 1 776 2025)">scales and weights.</text>
  <g transform="matrix(1 0 0 1 1289 1933)">
   <path d="M2.8418 1.86523L4.54102 3.57422Q5.18555 4.22852 5.90332 4.17969Q6.62109 4.13086 7.31445 3.35938L18.0078-8.42773L17.041-9.4043L6.42578 2.27539Q6.16211 2.57812 5.89355 2.61719Q5.625 2.65625 5.27344 2.30469L4.10156 1.14258Q3.75 0.791016 3.79395 0.522461Q3.83789 0.253906 4.14062-0.0195312L15.6152-10.8203L14.6387-11.7871L3.04688-0.898438Q2.30469-0.214844 2.25098 0.498047Q2.19727 1.21094 2.8418 1.86523ZM9.25781-16.3281Q8.94531-16.0254 8.90625-15.6348Q8.86719-15.2441 9.04297-14.9512Q9.21875-14.6777 9.55566-14.541Q9.89258-14.4043 10.3809-14.5215Q11.4746-14.7754 12.5977-14.7314Q13.7207-14.6875 14.7949-13.9844L14.209-12.5293Q13.9551-11.9043 14.0674-11.4404Q14.1797-10.9766 14.5801-10.5664L16.875-8.25195Q17.2363-7.88086 17.5781-7.82227Q17.9199-7.76367 18.3398-7.8418L19.4043-8.03711L20.0684-7.36328L20.0293-6.80664Q20-6.43555 20.1221-6.12305Q20.2441-5.81055 20.6055-5.44922L21.3672-4.70703Q21.7285-4.3457 22.1533-4.33105Q22.5781-4.31641 22.9297-4.66797L25.8398-7.58789Q26.1914-7.93945 26.1816-8.35449Q26.1719-8.76953 25.8105-9.13086L25.0391-9.89258Q24.6875-10.2539 24.3799-10.3857Q24.0723-10.5176 23.7109-10.4883L23.1348-10.4395L22.4902-11.0742L22.7344-12.1973Q22.832-12.6172 22.6953-12.9834Q22.5586-13.3496 22.1191-13.7891L19.9219-15.9766Q18.6719-17.2168 17.2607-17.8369Q15.8496-18.457 14.4189-18.4814Q12.9883-18.5059 11.665-17.959Q10.3418-17.4121 9.25781-16.3281ZM10.752-15.957Q11.6602-16.6211 12.7002-16.9043Q13.7402-17.1875 14.8047-17.085Q15.8691-16.9824 16.8701-16.5137Q17.8711-16.0449 18.7012-15.2051L21.1328-12.793Q21.3086-12.6172 21.3525-12.4512Q21.3965-12.2852 21.3379-12.0312L21.0156-10.5469L22.5195-9.0625L23.5059-9.12109Q23.6914-9.13086 23.7891-9.09668Q23.8867-9.0625 24.0332-8.91602L24.6094-8.33984L22.168-5.89844L21.5918-6.47461Q21.4453-6.62109 21.4062-6.71875Q21.3672-6.81641 21.377-7.01172L21.4453-7.98828L19.9512-9.47266L18.4277-9.21875Q18.1836-9.16992 18.042-9.2041Q17.9004-9.23828 17.7148-9.41406L15.7129-11.416Q15.5176-11.5918 15.4932-11.7529Q15.4688-11.9141 15.5859-12.1875L16.4648-14.2773Q15.293-15.3711 13.8281-15.791Q12.3633-16.2109 10.8398-15.7617Q10.7227-15.7324 10.6885-15.8057Q10.6543-15.8789 10.752-15.957Z"/>
  </g>
  <text style="stroke:none;fill:black;font-family:sans-serif;font-size:13;font-weight:bold;" transform="matrix(1 0 0 1 1289 1953)">Exporting</text>
  <text style="stroke:none;fill:black;font-family:sans-serif;font-size:13;" transform="matrix(1 0 0 1 1289 1971)">Symbols should be outlined when exporting to ensure the</text>
  <text style="stroke:none;fill:black;font-family:sans-serif;font-size:13;" transform="matrix(1 0 0 1 1289 1989)">design is preserved when submitting to Xcode.</text>
  <text id="template-version" style="stroke:none;fill:black;font-family:sans-serif;font-size:13;text-anchor:end;" transform="matrix(1 0 0 1 3036 1933)">Template v.2.0</text>
  <text style="stroke:none;fill:black;font-family:sans-serif;font-size:13;text-anchor:end;" transform="matrix(1 0 0 1 3036 1951)">Requires Xcode 13 or greater</text>
  <text id="descriptive-name" style="stroke:none;fill:black;font-family:sans-serif;font-size:13;text-anchor:end;" transform="matrix(1 0 0 1 3036 1969)">Generated from custom.stop.circle.fill</text>
  <text style="stroke:none;fill:black;font-family:sans-serif;font-size:13;text-anchor:end;" transform="matrix(1 0 0 1 3036 1987)">Typeset at 100 points</text>
  <text style="stroke:none;fill:black;font-family:sans-serif;font-size:13;" transform="matrix(1 0 0 1 263 726)">Small</text>
  <text style="stroke:none;fill:black;font-family:sans-serif;font-size:13;" transform="matrix(1 0 0 1 263 1156)">Medium</text>
  <text style="stroke:none;fill:black;font-family:sans-serif;font-size:13;" transform="matrix(1 0 0 1 263 1586)">Large</text>
 </g>
 <g id="Guides">
  <g id="H-reference" style="fill:#27AAE1;stroke:none;" transform="matrix(1 0 0 1 339 696)">
   <path d="M0.976562 0L3.66211 0L29.3457-67.1387L30.0293-67.1387L30.0293-70.459L28.125-70.459ZM11.6699-24.4629L46.9727-24.4629L46.2402-26.709L12.4512-26.709ZM55.127 0L57.7637 0L30.6152-70.459L29.4434-70.459L29.4434-67.1387Z"/>
  </g>
  <line id="Baseline-S" style="fill:none;stroke:#27AAE1;opacity:1;stroke-width:0.5;" x1="263" x2="3036" y1="696" y2="696"/>
  <line id="Capline-S" style="fill:none;stroke:#27AAE1;opacity:1;stroke-width:0.5;" x1="263" x2="3036" y1="625.541" y2="625.541"/>
  <g id="H-reference" style="fill:#27AAE1;stroke:none;" transform="matrix(1 0 0 1 339 1126)">
   <path d="M0.976562 0L3.66211 0L29.3457-67.1387L30.0293-67.1387L30.0293-70.459L28.125-70.459ZM11.6699-24.4629L46.9727-24.4629L46.2402-26.709L12.4512-26.709ZM55.127 0L57.7637 0L30.6152-70.459L29.4434-70.459L29.4434-67.1387Z"/>
  </g>
  <line id="Baseline-M" style="fill:none;stroke:#27AAE1;opacity:1;stroke-width:0.5;" x1="263" x2="3036" y1="1126" y2="1126"/>
  <line id="Capline-M" style="fill:none;stroke:#27AAE1;opacity:1;stroke-width:0.5;" x1="263" x2="3036" y1="1055.54" y2="1055.54"/>
  <g id="H-reference" style="fill:#27AAE1;stroke:none;" transform="matrix(1 0 0 1 339 1556)">
   <path d="M0.976562 0L3.66211 0L29.3457-67.1387L30.0293-67.1387L30.0293-70.459L28.125-70.459ZM11.6699-24.4629L46.9727-24.4629L46.2402-26.709L12.4512-26.709ZM55.127 0L57.7637 0L30.6152-70.459L29.4434-70.459L29.4434-67.1387Z"/>
  </g>
  <line id="Baseline-L" style="fill:none;stroke:#27AAE1;opacity:1;stroke-width:0.5;" x1="263" x2="3036" y1="1556" y2="1556"/>
  <line id="Capline-L" style="fill:none;stroke:#27AAE1;opacity:1;stroke-width:0.5;" x1="263" x2="3036" y1="1485.54" y2="1485.54"/>
  <line id="left-margin" style="fill:none;stroke:#00AEEF;stroke-width:0.5;opacity:1.0;" x1="1391" x2="1391" y1="1030.78" y2="1150.12"/>
  <line id="right-margin" style="fill:none;stroke:#00AEEF;stroke-width:0.5;opacity:1.0;" x1="1508.69" x2="1508.69" y1="1030.78" y2="1150.12"/>
 </g>
 <g id="Symbols">
  <g id="Black-L" transform="matrix(1 0 0 1 2853.78 1556)">
   <path d="M79.607 33.1373Q93.6473 33.1373 105.933 27.8424Q118.218 22.5474 127.586 13.1691Q136.954 3.79083 142.26-8.49443Q147.566-20.7797 147.566-34.7992Q147.566-48.8188 142.26-61.1041Q136.954-73.3892 127.575-82.7676Q118.197-92.1459 105.912-97.4408Q93.6266-102.736 79.5863-102.736Q65.5681-102.736 53.2822-97.4408Q40.9964-92.1459 31.6393-82.7676Q22.2824-73.3892 16.9765-61.1041Q11.6705-48.8188 11.6705-34.7992Q11.6705-20.7797 16.9765-8.49443Q22.2824 3.79083 31.6497 13.1691Q41.0171 22.5474 53.3029 27.8424Q65.5888 33.1373 79.607 33.1373ZM63.0189-10.5275Q59.4658-10.5275 57.3422-12.4954Q55.2186-14.4633 55.2186-17.7023L55.2186-52.0129Q55.2186-55.2532 57.3422-57.2205Q59.4658-59.1878 63.0189-59.1878L96.1368-59.1878Q99.6899-59.1878 101.814-57.2205Q103.937-55.2532 103.937-52.0129L103.937-17.7023Q103.937-14.4633 101.814-12.4954Q99.6899-10.5275 96.1368-10.5275Z"/>
  </g>
  <g id="Heavy-L" transform="matrix(1 0 0 1 2558.01 1556)">
   <path d="M78.6628 32.1793Q92.4997 32.1793 104.614 26.9585Q116.728 21.7377 125.971 12.4798Q135.213 3.22197 140.452-8.89197Q145.691-21.0059 145.691-34.813Q145.691-48.6201 140.452-60.7341Q135.213-72.848 125.956-82.1059Q116.698-91.3637 104.584-96.5845Q92.4699-101.805 78.633-101.805Q64.832-101.805 52.715-96.5845Q40.5981-91.3637 31.373-82.1059Q22.1479-72.848 16.9092-60.7341Q11.6705-48.6201 11.6705-34.813Q11.6705-21.0059 16.9092-8.89197Q22.1479 3.22197 31.3878 12.4798Q40.6279 21.7377 52.7448 26.9585Q64.8617 32.1793 78.6628 32.1793ZM61.9406-10.7185Q58.5224-10.7185 56.5008-12.6168Q54.4791-14.5151 54.4791-17.6743L54.4791-52.041Q54.4791-55.2062 56.5008-57.1015Q58.5224-58.9968 61.9406-58.9968L95.3404-58.9968Q98.7585-58.9968 100.78-57.1015Q102.802-55.2062 102.802-52.041L102.802-17.6743Q102.802-14.5151 100.78-12.6168Q98.7585-10.7185 95.3404-10.7185Z"/>
  </g>
  <g id="Bold-L" transform="matrix(1 0 0 1 2262.47 1556)">
   <path d="M77.477 30.9781Q91.0633 30.9781 102.961 25.8517Q114.859 20.7253 123.945 11.621Q133.031 2.51655 138.183-9.38129Q143.335-21.2791 143.335-34.8284Q143.335-48.3778 138.183-60.2756Q133.031-72.1734 123.926-81.2778Q114.822-90.3822 102.924-95.5085Q91.0264-100.635 77.44-100.635Q63.9049-100.635 52-95.5085Q40.0951-90.3822 31.0347-81.2778Q21.9745-72.1734 16.8225-60.2756Q11.6705-48.3778 11.6705-34.8284Q11.6705-21.2791 16.8225-9.38129Q21.9745 2.51655 31.0532 11.621Q40.1321 20.7253 52.037 25.8517Q63.9419 30.9781 77.477 30.9781ZM60.5905-10.9811Q57.3549-10.9811 55.4631-12.7885Q53.5713-14.596 53.5713-17.6343L53.5713-52.0809Q53.5713-55.1334 55.4631-56.9338Q57.3549-58.7342 60.5905-58.7342L94.3343-58.7342Q97.5698-58.7342 99.4617-56.9338Q101.354-55.1334 101.354-52.0809L101.354-17.6343Q101.354-14.596 99.4617-12.7885Q97.5698-10.9811 94.3343-10.9811Z"/>
  </g>
  <g id="Semibold-L" transform="matrix(1 0 0 1 1966.58 1556)">
   <path d="M76.6595 30.1499Q90.0731 30.1499 101.822 25.0887Q113.571 20.0274 122.548 11.0288Q131.526 2.03024 136.618-9.71862Q141.71-21.4675 141.71-34.8391Q141.71-48.2107 136.618-59.9596Q131.526-71.7084 122.527-80.707Q113.529-89.7056 101.78-94.7668Q90.0312-99.828 76.6176-99.828Q63.2658-99.828 51.5071-94.7668Q39.7483-89.7056 30.8015-80.707Q21.8549-71.7084 16.7627-59.9596Q11.6705-48.2107 11.6705-34.8391Q11.6705-21.4675 16.7627-9.71862Q21.8549 2.03024 30.8225 11.0288Q39.7903 20.0274 51.549 25.0887Q63.3078 30.1499 76.6595 30.1499ZM59.6598-11.1622Q56.55-11.1622 54.7478-12.907Q52.9455-14.6518 52.9455-17.6067L52.9455-52.1085Q52.9455-55.0833 54.7478-56.8182Q56.55-58.5531 59.6598-58.5531L93.6408-58.5531Q96.7504-58.5531 98.5527-56.8182Q100.355-55.0833 100.355-52.1085L100.355-17.6067Q100.355-14.6518 98.5527-12.907Q96.7504-11.1622 93.6408-11.1622Z"/>
  </g>
  <g id="Medium-L" transform="matrix(1 0 0 1 1670.48 1556)">
   <path d="M76.0397 29.522Q89.3223 29.522 100.958 24.5101Q112.594 19.4983 121.49 10.5799Q130.385 1.66149 135.432-9.9744Q140.479-21.6103 140.479-34.8471Q140.479-48.084 135.432-59.7199Q130.385-71.3558 121.467-80.2741Q112.548-89.1925 100.912-94.2043Q89.2766-99.2162 75.9939-99.2162Q62.7813-99.2162 51.1333-94.2043Q39.4854-89.1925 30.6247-80.2741Q21.7642-71.3558 16.7174-59.7199Q11.6705-48.084 11.6705-34.8471Q11.6705-21.6103 16.7174-9.9744Q21.7642 1.66149 30.6476 10.5799Q39.5311 19.4983 51.179 24.5101Q62.827 29.522 76.0397 29.522ZM58.954-11.2994Q55.9397-11.2994 54.2054-12.9968Q52.471-14.6941 52.471-17.5858L52.471-52.1294Q52.471-55.0453 54.2054-56.7305Q55.9397-58.4159 58.954-58.4159L93.1149-58.4159Q96.129-58.4159 97.8635-56.7305Q99.5979-55.0453 99.5979-52.1294L99.5979-17.5858Q99.5979-14.6941 97.8635-12.9968Q96.129-11.2994 93.1149-11.2994Z"/>
  </g>
  <g id="Regular-L" transform="matrix(1 0 0 1 1374.57 1556)">
   <path d="M75.2312 28.703Q88.343 28.703 99.8315 23.7555Q111.32 18.808 120.108 9.99429Q128.897 1.18052 133.885-10.308Q138.872-21.7966 138.872-34.8576Q138.872-47.9187 133.885-59.4073Q128.897-70.8959 120.083-79.7096Q111.269-88.5233 99.7809-93.4707Q88.2923-98.4182 75.1805-98.4182Q62.1492-98.4182 50.6458-93.4707Q39.1424-88.5233 30.3941-79.7096Q21.646-70.8959 16.6582-59.4073Q11.6705-47.9187 11.6705-34.8576Q11.6705-21.7966 16.6582-10.308Q21.646 1.18052 30.4194 9.99429Q39.193 18.808 50.6964 23.7555Q62.1998 28.703 75.2312 28.703ZM58.0335-11.4785Q55.1437-11.4785 53.4979-13.1139Q51.852-14.7493 51.852-17.5586L51.852-52.1567Q51.852-54.9957 53.4979-56.6162Q55.1437-58.2368 58.0335-58.2368L92.4289-58.2368Q95.3186-58.2368 96.9645-56.6162Q98.6103-54.9957 98.6103-52.1567L98.6103-17.5586Q98.6103-14.7493 96.9645-13.1139Q95.3186-11.4785 92.4289-11.4785Z"/>
  </g>
  <g id="Light-L" transform="matrix(1 0 0 1 1078.79 1556)">
   <path d="M74.3077 27.7795Q87.2553 27.7795 98.5694 22.9141Q109.883 18.0487 118.549 9.36837Q127.214 0.688027 132.12-10.6261Q137.025-21.9402 137.025-34.8576Q137.025-47.7751 132.12-59.0892Q127.214-70.4033 118.534-79.0837Q109.853-87.764 98.5393-92.6294Q87.2252-97.4947 74.2776-97.4947Q61.4104-97.4947 50.0712-92.6294Q38.7319-87.764 30.1068-79.0837Q21.4818-70.4033 16.5762-59.0892Q11.6705-47.7751 11.6705-34.8576Q11.6705-21.9402 16.5762-10.6261Q21.4818 0.688027 30.1218 9.36837Q38.7621 18.0487 50.1013 22.9141Q61.4405 27.7795 74.3077 27.7795ZM57.0074-11.8273Q54.3434-11.8273 52.8104-13.3704Q51.2774-14.9135 51.2774-17.497L51.2774-52.2182Q51.2774-54.852 52.8104-56.3699Q54.3434-57.888 57.0074-57.888L91.608-57.888Q94.2719-57.888 95.805-56.3699Q97.3379-54.852 97.3379-52.2182L97.3379-17.497Q97.3379-14.9135 95.805-13.3704Q94.2719-11.8273 91.608-11.8273Z"/>
  </g>
  <g id="Thin-L" transform="matrix(1 0 0 1 783.296 1556)">
   <path d="M73.0864 26.5581Q85.8168 26.5581 96.9002 21.8013Q107.983 17.0445 116.486 8.54054Q124.988 0.0366622 129.786-11.0468Q134.582-22.1302 134.582-34.8576Q134.582-47.5852 129.786-58.6685Q124.988-69.7519 116.484-78.2559Q107.98-86.7597 96.8972-91.5166Q85.8138-96.2733 73.0833-96.2733Q60.4333-96.2733 49.3112-91.5166Q38.1891-86.7597 29.7268-78.2559Q21.2647-69.7519 16.4676-58.6685Q11.6705-47.5852 11.6705-34.8576Q11.6705-22.1302 16.4676-11.0468Q21.2647 0.0366622 29.7283 8.54054Q38.1921 17.0445 49.3142 21.8013Q60.4363 26.5581 73.0864 26.5581ZM55.6503-12.2887Q53.2848-12.2887 51.9012-13.7096Q50.5174-15.1306 50.5174-17.4155L50.5174-52.2997Q50.5174-54.662 51.9012-56.0443Q53.2848-57.4265 55.6503-57.4265L90.5224-57.4265Q92.8877-57.4265 94.2715-56.0443Q95.6551-54.662 95.6551-52.2997L95.6551-17.4155Q95.6551-15.1306 94.2715-13.7096Q92.8877-12.2887 90.5224-12.2887Z"/>
  </g>
  <g id="Ultralight-L" transform="matrix(1 0 0 1 487.211 1556)">
   <path d="M72.4608 25.9325Q85.08 25.9325 96.0452 21.2313Q107.01 16.5301 115.429 8.11653Q123.848-0.296964 128.59-11.2622Q133.331-22.2275 133.331-34.8576Q133.331-47.4879 128.59-58.453Q123.848-69.4182 115.435-77.8319Q107.021-86.2453 96.0561-90.9466Q85.0908-95.6477 72.4717-95.6477Q59.9328-95.6477 48.9219-90.9466Q37.911-86.2453 29.5322-77.8319Q21.1535-69.4182 16.412-58.453Q11.6705-47.4879 11.6705-34.8576Q11.6705-22.2275 16.412-11.2622Q21.1535-0.296964 29.5267 8.11653Q37.9001 16.5301 48.911 21.2313Q59.9219 25.9325 72.4608 25.9325ZM54.9552-12.525Q52.7426-12.525 51.4355-13.8834Q50.1282-15.2418 50.1282-17.3738L50.1282-52.3414Q50.1282-54.5647 51.4355-55.8775Q52.7426-57.1902 54.9552-57.1902L89.9663-57.1902Q92.1787-57.1902 93.486-55.8775Q94.7932-54.5647 94.7932-52.3414L94.7932-17.3738Q94.7932-15.2418 93.486-13.8834Q92.1787-12.525 89.9663-12.525Z"/>
  </g>
  <g id="Black-M" transform="matrix(1 0 0 1 2871.03 1126)">
   <path d="M62.3613 18.4353Q73.3915 18.4353 83.033 14.2805Q92.6745 10.1257 100.023 2.77445Q107.371-4.57675 111.529-14.2183Q115.686-23.8598 115.686-34.8844Q115.686-45.9091 111.529-55.5506Q107.371-65.192 100.02-72.5433Q92.669-79.8945 83.0275-84.0493Q73.386-88.2041 62.3558-88.2041Q51.3309-88.2041 41.6895-84.0493Q32.0482-79.8945 24.7023-72.5433Q17.3565-65.192 13.199-55.5506Q9.04166-45.9091 9.04166-34.8844Q9.04166-23.8598 13.199-14.2183Q17.3565-4.57675 24.705 2.77445Q32.0537 10.1257 41.695 14.2805Q51.3364 18.4353 62.3613 18.4353ZM49.6111-15.975Q46.7729-15.975 45.0554-17.5469Q43.3378-19.1189 43.3378-21.6663L43.3378-48.2167Q43.3378-50.7638 45.0554-52.3359Q46.7729-53.908 49.6111-53.908L75.0545-53.908Q77.8926-53.908 79.6102-52.3359Q81.3278-50.7638 81.3278-48.2167L81.3278-21.6663Q81.3278-19.1189 79.6102-17.5469Q77.8926-15.975 75.0545-15.975Z"/>
  </g>
  <g id="Heavy-M" transform="matrix(1 0 0 1 2575.15 1126)">
   <path d="M61.5234 17.5839Q72.3699 17.5839 81.86 13.494Q91.3502 9.40412 98.5878 2.15835Q105.825-5.08742 109.925-14.5776Q114.024-24.0677 114.024-34.8979Q114.024-45.7281 109.925-55.2183Q105.825-64.7083 98.5797-71.9541Q91.3339-79.1999 81.8438-83.2898Q72.3537-87.3797 61.5072-87.3797Q50.6794-87.3797 41.1881-83.2898Q31.6968-79.1999 24.4684-71.9541Q17.2401-64.7083 13.1409-55.2183Q9.04166-45.7281 9.04166-34.8979Q9.04166-24.0677 13.1409-14.5776Q17.2401-5.08742 24.4765 2.15835Q31.713 9.40412 41.2043 13.494Q50.6957 17.5839 61.5234 17.5839ZM48.6516-16.1296Q45.9246-16.1296 44.2963-17.6419Q42.6679-19.1544 42.6679-21.6446L42.6679-48.2384Q42.6679-50.731 44.2963-52.2423Q45.9246-53.7534 48.6516-53.7534L74.3517-53.7534Q77.0787-53.7534 78.707-52.2423Q80.3354-50.731 80.3354-48.2384L80.3354-21.6446Q80.3354-19.1544 78.707-17.6419Q77.0787-16.1296 74.3517-16.1296Z"/>
  </g>
  <g id="Bold-M" transform="matrix(1 0 0 1 2279.37 1126)">
   <path d="M60.5861 16.6316Q71.2271 16.6316 80.5479 12.6143Q89.8687 8.59695 96.9824 1.46914Q104.096-5.65867 108.13-14.9795Q112.164-24.3002 112.164-34.913Q112.164-45.5257 108.13-54.8465Q104.096-64.1673 96.9682-71.2951Q89.8405-78.4229 80.5197-82.4402Q71.1989-86.4575 60.5579-86.4575Q49.9507-86.4575 40.6272-82.4402Q31.3037-78.4229 24.2068-71.2951Q17.11-64.1673 13.0758-54.8465Q9.04166-45.5257 9.04166-34.913Q9.04166-24.3002 13.0758-14.9795Q17.11-5.65867 24.2209 1.46914Q31.3319 8.59695 40.6554 12.6143Q49.9789 16.6316 60.5861 16.6316ZM47.5784-16.3025Q44.9756-16.3025 43.4471-17.7482Q41.9186-19.1941 41.9186-21.6203L41.9186-48.2627Q41.9186-50.6945 43.4471-52.1375Q44.9756-53.5806 47.5784-53.5806L73.5654-53.5806Q76.1682-53.5806 77.6967-52.1375Q79.2252-50.6945 79.2252-48.2627L79.2252-21.6203Q79.2252-19.1941 77.6967-17.7482Q76.1682-16.3025 73.5654-16.3025Z"/>
  </g>
  <g id="Semibold-M" transform="matrix(1 0 0 1 1983.3 1126)">
   <path d="M59.94 15.975Q70.4393 15.975 79.6434 12.0077Q88.8474 8.04049 95.8756 0.994012Q102.904-6.05249 106.893-15.2565Q110.883-24.4606 110.883-34.9234Q110.883-45.3862 106.893-54.5902Q102.904-63.7942 95.8573-70.8407Q88.8109-77.8872 79.6069-81.8544Q70.4028-85.8217 59.9035-85.8217Q49.4483-85.8217 40.2405-81.8544Q31.0327-77.8872 24.0264-70.8407Q17.0203-63.7942 13.031-54.5902Q9.04166-45.3862 9.04166-34.9234Q9.04166-24.4606 13.031-15.2565Q17.0203-6.05249 24.0447 0.994012Q31.0692 8.04049 40.277 12.0077Q49.4848 15.975 59.94 15.975ZM46.8385-16.4217Q44.3213-16.4217 42.8617-17.8215Q41.402-19.2214 41.402-21.6035L41.402-48.2795Q41.402-50.6692 42.8617-52.0653Q44.3213-53.4614 46.8385-53.4614L73.0234-53.4614Q75.5405-53.4614 77.0002-52.0653Q78.4599-50.6692 78.4599-48.2795L78.4599-21.6035Q78.4599-19.2214 77.0002-17.8215Q75.5405-16.4217 73.0234-16.4217Z"/>
  </g>
  <g id="Medium-M" transform="matrix(1 0 0 1 1687.08 1126)">
   <path d="M59.45 15.4772Q69.842 15.4772 78.9575 11.5479Q88.073 7.61856 95.0365 0.633747Q102-6.3511 105.955-15.4666Q109.911-24.5821 109.911-34.9312Q109.911-45.2803 105.955-54.3959Q102-63.5114 95.015-70.4962Q88.0302-77.481 78.9147-81.4103Q69.7992-85.3396 59.4073-85.3396Q49.0674-85.3396 39.9473-81.4103Q30.8272-77.481 23.8897-70.4962Q16.9523-63.5114 12.997-54.3959Q9.04166-45.2803 9.04166-34.9312Q9.04166-24.5821 12.997-15.4666Q16.9523-6.3511 23.9111 0.633747Q30.8699 7.61856 39.99 11.5479Q49.1102 15.4772 59.45 15.4772ZM46.2775-16.512Q43.8253-16.512 42.4178-17.8771Q41.0103-19.2421 41.0103-21.5908L41.0103-48.2922Q41.0103-50.6501 42.4178-52.0105Q43.8253-53.371 46.2775-53.371L72.6124-53.371Q75.0645-53.371 76.4721-52.0105Q77.8796-50.6501 77.8796-48.2922L77.8796-21.5908Q77.8796-19.2421 76.4721-17.8771Q75.0645-16.512 72.6124-16.512Z"/>
  </g>
  <g id="Regular-M" transform="matrix(1 0 0 1 1391 1126)">
   <path d="M58.811 14.8278Q69.0628 14.8278 78.0629 10.948Q87.0629 7.06822 93.9419 0.163835Q100.821-6.74059 104.732-15.7406Q108.643-24.7407 108.643-34.9415Q108.643-45.1423 104.732-54.1425Q100.821-63.1425 93.9163-70.0468Q87.012-76.9513 78.0119-80.831Q69.0119-84.7108 58.76-84.7108Q48.5706-84.7108 39.5649-80.831Q30.5591-76.9513 23.7113-70.0468Q16.8636-63.1425 12.9526-54.1425Q9.04166-45.1423 9.04166-34.9415Q9.04166-24.7407 12.9526-15.7406Q16.8636-6.74059 23.7368 0.163835Q30.6101 7.06822 39.6158 10.948Q48.6215 14.8278 58.811 14.8278ZM45.5457-16.6299Q43.1782-16.6299 41.8388-17.9496Q40.4994-19.2692 40.4994-21.5743L40.4994-48.3087Q40.4994-50.6251 41.8388-51.9391Q43.1782-53.2532 45.5457-53.2532L72.0763-53.2532Q74.4437-53.2532 75.7832-51.9391Q77.1226-50.6251 77.1226-48.3087L77.1226-21.5743Q77.1226-19.2692 75.7832-17.9496Q74.4437-16.6299 72.0763-16.6299Z"/>
  </g>
  <g id="Light-M" transform="matrix(1 0 0 1 1095.12 1126)">
   <path d="M57.983 13.9999Q68.0877 13.9999 76.9313 10.1937Q85.7749 6.38745 92.5435-0.397336Q99.312-7.18214 103.149-16.0258Q106.987-24.8695 106.987-34.9415Q106.987-45.0136 103.149-53.8572Q99.312-62.7009 92.5272-69.4857Q85.7424-76.2705 76.8988-80.0767Q68.0551-83.8829 57.9505-83.8829Q47.9082-83.8829 39.0497-80.0767Q30.1911-76.2705 23.4537-69.4857Q16.7164-62.7009 12.879-53.8572Q9.04166-45.0136 9.04166-34.9415Q9.04166-24.8695 12.879-16.0258Q16.7164-7.18214 23.47-0.397336Q30.2237 6.38745 39.0822 10.1937Q47.9408 13.9999 57.983 13.9999ZM44.6258-16.9427Q42.4607-16.9427 41.2225-18.1795Q39.9842-19.4164 39.9842-21.5191L39.9842-48.3639Q39.9842-50.4964 41.2225-51.7183Q42.4607-52.9404 44.6258-52.9404L71.3404-52.9404Q73.5054-52.9404 74.7437-51.7183Q75.9819-50.4964 75.9819-48.3639L75.9819-21.5191Q75.9819-19.4164 74.7437-18.1795Q73.5054-16.9427 71.3404-16.9427Z"/>
  </g>
  <g id="Thin-M" transform="matrix(1 0 0 1 799.503 1126)">
   <path d="M56.888 12.9048Q66.7979 12.9048 75.4348 9.19597Q84.0715 5.48709 90.6941-1.13953Q97.3166-7.76612 101.057-16.403Q104.797-25.0398 104.797-34.9415Q104.797-44.8433 101.057-53.48Q97.3166-62.1169 90.69-68.7435Q84.0633-75.3701 75.4266-79.079Q66.7897-82.7878 56.8798-82.7878Q47.0322-82.7878 38.3683-79.079Q29.7044-75.3701 23.113-68.7435Q16.5217-62.1169 12.7817-53.48Q9.04166-44.8433 9.04166-34.9415Q9.04166-25.0398 12.7817-16.403Q16.5217-7.76612 23.1171-1.13953Q29.7127 5.48709 38.3765 9.19597Q47.0404 12.9048 56.888 12.9048ZM43.4091-17.3563Q41.5116-17.3563 40.4073-18.4837Q39.3029-19.611 39.3029-21.4461L39.3029-48.4369Q39.3029-50.326 40.4073-51.4263Q41.5116-52.5267 43.4091-52.5267L70.367-52.5267Q72.2643-52.5267 73.3688-51.4263Q74.4731-50.326 74.4731-48.4369L74.4731-21.4461Q74.4731-19.611 73.3688-18.4837Q72.2643-17.3563 70.367-17.3563Z"/>
  </g>
  <g id="Ultralight-M" transform="matrix(1 0 0 1 503.353 1126)">
   <path d="M56.3272 12.344Q66.1374 12.344 74.6683 8.68495Q83.1991 5.02593 89.7468-1.51968Q96.2946-8.06524 99.9848-16.5962Q103.675-25.1271 103.675-34.9415Q103.675-44.7561 99.9848-53.2868Q96.2946-61.8177 89.7489-68.3634Q83.2033-74.9089 74.6725-78.568Q66.1416-82.2269 56.3314-82.2269Q46.5835-82.2269 38.0193-78.568Q29.4552-74.9089 22.9385-68.3634Q16.422-61.8177 12.7318-53.2868Q9.04166-44.7561 9.04166-34.9415Q9.04166-25.1271 12.7318-16.5962Q16.422-8.06524 22.9364-1.51968Q29.4509 5.02593 38.0151 8.68495Q46.5793 12.344 56.3272 12.344ZM42.7859-17.5682Q41.0255-17.5682 39.9898-18.6395Q38.9539-19.7107 38.9539-21.4087L38.9539-48.4743Q38.9539-50.2388 39.9898-51.2768Q41.0255-52.3148 42.7859-52.3148L69.8685-52.3148Q71.6287-52.3148 72.6646-51.2768Q73.7003-50.2388 73.7003-48.4743L73.7003-21.4087Q73.7003-19.7107 72.6646-18.6395Q71.6287-17.5682 69.8685-17.5682Z"/>
  </g>
  <g id="Black-S" transform="matrix(1 0 0 1 2884.32 696)">
   <path d="M49.0781 7.03711Q57.7695 7.03711 65.3623 3.76562Q72.9551 0.494141 78.7412-5.29199Q84.5273-11.0781 87.7988-18.6709Q91.0703-26.2637 91.0703-34.9551Q91.0703-43.6465 87.7988-51.2393Q84.5273-58.832 78.7412-64.6182Q72.9551-70.4043 65.3623-73.6758Q57.7695-76.9473 49.0781-76.9473Q40.3867-76.9473 32.7939-73.6758Q25.2012-70.4043 19.415-64.6182Q13.6289-58.832 10.3574-51.2393Q7.08594-43.6465 7.08594-34.9551Q7.08594-26.2637 10.3574-18.6709Q13.6289-11.0781 19.415-5.29199Q25.2012 0.494141 32.7939 3.76562Q40.3867 7.03711 49.0781 7.03711ZM39.1172-20.1113Q36.8711-20.1113 35.5039-21.3564Q34.1367-22.6016 34.1367-24.6035L34.1367-45.4043Q34.1367-47.4062 35.5039-48.6514Q36.8711-49.8965 39.1172-49.8965L58.9902-49.8965Q61.2363-49.8965 62.6035-48.6514Q63.9707-47.4062 63.9707-45.4043L63.9707-24.6035Q63.9707-22.6016 62.6035-21.3564Q61.2363-20.1113 58.9902-20.1113Z"/>
  </g>
  <g id="Heavy-S" transform="matrix(1 0 0 1 2588.21 696)">
   <path d="M48.4673 6.41479Q57.0204 6.41479 64.5037 3.1894Q71.987-0.0359838 77.6925-5.74721Q83.3979-11.4584 86.6291-18.9417Q89.8602-26.425 89.8602-34.9666Q89.8602-43.5082 86.6291-50.9915Q83.3979-58.4748 77.6867-64.186Q71.9755-69.8972 64.4922-73.1226Q57.0089-76.348 48.4558-76.348Q39.9142-76.348 32.4309-73.1226Q24.9477-69.8972 19.2479-64.186Q13.5482-58.4748 10.3171-50.9915Q7.08594-43.5082 7.08594-34.9666Q7.08594-26.425 10.3171-18.9417Q13.5482-11.4584 19.2537-5.74721Q24.9592-0.0359838 32.4424 3.1894Q39.9257 6.41479 48.4673 6.41479ZM38.4142-20.2035Q36.2372-20.2035 34.9334-21.4083Q33.6296-22.6131 33.6296-24.592L33.6296-45.4158Q33.6296-47.3947 34.9334-48.5995Q36.2372-49.8043 38.4142-49.8043L58.4831-49.8043Q60.6601-49.8043 61.9639-48.5995Q63.2677-47.3947 63.2677-45.4158L63.2677-24.592Q63.2677-22.6131 61.9639-21.4083Q60.6601-20.2035 58.4831-20.2035Z"/>
  </g>
  <g id="Bold-S" transform="matrix(1 0 0 1 2292.18 696)">
   <path d="M47.7841 5.71875Q56.1826 5.71875 63.5434 2.54492Q70.9043-0.628904 76.5195-6.25634Q82.1347-11.8838 85.3208-19.2447Q88.5068-26.6055 88.5068-34.9795Q88.5068-43.3535 85.3208-50.7144Q82.1347-58.0752 76.5073-63.7027Q70.8799-69.3301 63.519-72.5039Q56.1582-75.6778 47.7597-75.6778Q39.3857-75.6778 32.0249-72.5039Q24.6641-69.3301 19.061-63.7027Q13.458-58.0752 10.272-50.7144Q7.08594-43.3535 7.08594-34.9795Q7.08594-26.6055 10.272-19.2447Q13.458-11.8838 19.0732-6.25634Q24.6885-0.628904 32.0493 2.54492Q39.4101 5.71875 47.7841 5.71875ZM37.6279-20.3066Q35.5283-20.3066 34.2954-21.4663Q33.0625-22.626 33.0625-24.5791L33.0625-45.4287Q33.0625-47.3818 34.2954-48.5415Q35.5283-49.7012 37.6279-49.7012L57.916-49.7012Q60.0156-49.7012 61.2485-48.5415Q62.4814-47.3818 62.4814-45.4287L62.4814-24.5791Q62.4814-22.626 61.2485-21.4663Q60.0156-20.3066 57.916-20.3066Z"/>
  </g>
  <g id="Semibold-S" transform="matrix(1 0 0 1 1995.94 696)">
   <path d="M47.3132 5.23887Q55.605 5.23887 62.8814 2.10059Q70.1578-1.03769 75.7109-6.60737Q81.2639-12.1771 84.4188-19.4535Q87.5738-26.7299 87.5738-34.9884Q87.5738-43.2468 84.4188-50.5233Q81.2639-57.7997 75.6942-63.3694Q70.1245-68.9391 62.8481-72.0773Q55.5717-75.2156 47.2799-75.2156Q39.0214-75.2156 31.745-72.0773Q24.4686-68.9391 18.9321-63.3694Q13.3958-57.7997 10.2409-50.5233Q7.08594-43.2468 7.08594-34.9884Q7.08594-26.7299 10.2409-19.4535Q13.3958-12.1771 18.9488-6.60737Q24.5019-1.03769 31.7783 2.10059Q39.0547 5.23887 47.3132 5.23887ZM37.0859-20.3778Q35.0395-20.3778 33.8555-21.5063Q32.6715-22.6349 32.6715-24.5702L32.6715-45.4376Q32.6715-47.3729 33.8555-48.5015Q35.0395-49.6301 37.0859-49.6301L57.525-49.6301Q59.5713-49.6301 60.7553-48.5015Q61.9394-47.3729 61.9394-45.4376L61.9394-24.5702Q61.9394-22.6349 60.7553-21.5063Q59.5713-20.3778 57.525-20.3778Z"/>
  </g>
  <g id="Medium-S" transform="matrix(1 0 0 1 1699.58 696)">
   <path d="M46.956 4.875Q55.167 4.875 62.3794 1.76367Q69.5918-1.34765 75.0977-6.87353Q80.6035-12.3994 83.7349-19.6119Q86.8662-26.8243 86.8662-34.9951Q86.8662-43.166 83.7349-50.3785Q80.6035-57.5908 75.0776-63.1167Q69.5518-68.6426 62.3394-71.7539Q55.127-74.8652 46.916-74.8652Q38.7451-74.8652 31.5327-71.7539Q24.3204-68.6426 18.8344-63.1167Q13.3486-57.5908 10.2173-50.3785Q7.08594-43.166 7.08594-34.9951Q7.08594-26.8243 10.2173-19.6119Q13.3486-12.3994 18.8544-6.87353Q24.3604-1.34765 31.5728 1.76367Q38.7852 4.875 46.956 4.875ZM36.6748-20.4317Q34.6689-20.4317 33.522-21.5366Q32.375-22.6416 32.375-24.5635L32.375-45.4443Q32.375-47.3662 33.522-48.4712Q34.6689-49.5762 36.6748-49.5762L57.2285-49.5762Q59.2344-49.5762 60.3814-48.4712Q61.5283-47.3662 61.5283-45.4443L61.5283-24.5635Q61.5283-22.6416 60.3814-21.5366Q59.2344-20.4317 57.2285-20.4317Z"/>
  </g>
  <g id="Regular-S" transform="matrix(1 0 0 1 1403.33 696)">
   <path d="M46.4902 4.40039Q54.5957 4.40039 61.7246 1.32422Q68.8535-1.75195 74.2979-7.2207Q79.7422-12.6895 82.8428-19.8184Q85.9434-26.9473 85.9434-35.0039Q85.9434-43.0605 82.8428-50.1895Q79.7422-57.3184 74.2734-62.7871Q68.8047-68.2559 61.6758-71.332Q54.5469-74.4082 46.4414-74.4082Q38.3848-74.4082 31.2559-71.332Q24.127-68.2559 18.707-62.7871Q13.2871-57.3184 10.1865-50.1895Q7.08594-43.0605 7.08594-35.0039Q7.08594-26.9473 10.1865-19.8184Q13.2871-12.6895 18.7314-7.2207Q24.1758-1.75195 31.3047 1.32422Q38.4336 4.40039 46.4902 4.40039ZM36.1387-20.502Q34.1855-20.502 33.0869-21.5762Q31.9883-22.6504 31.9883-24.5547L31.9883-45.4531Q31.9883-47.3574 33.0869-48.4316Q34.1855-49.5059 36.1387-49.5059L56.8418-49.5059Q58.7949-49.5059 59.8936-48.4316Q60.9922-47.3574 60.9922-45.4531L60.9922-24.5547Q60.9922-22.6504 59.8936-21.5762Q58.7949-20.502 56.8418-20.502Z"/>
  </g>
  <g id="Light-S" transform="matrix(1 0 0 1 1107.35 696)">
   <path d="M45.7578 3.66797Q53.7331 3.66797 60.7236 0.656902Q67.7142-2.35416 73.0609-7.71712Q78.4076-13.0801 81.4431-20.0707Q84.4785-27.0612 84.4785-35.0039Q84.4785-42.9466 81.4431-49.9372Q78.4076-56.9278 73.0446-62.2907Q67.6816-67.6537 60.6911-70.6647Q53.7005-73.6758 45.7253-73.6758Q37.7989-73.6758 30.8002-70.6647Q23.8015-67.6537 18.4791-62.2907Q13.1569-56.9278 10.1214-49.9372Q7.08594-42.9466 7.08594-35.0039Q7.08594-27.0612 10.1214-20.0707Q13.1569-13.0801 18.4954-7.71712Q23.834-2.35416 30.8327 0.656902Q37.8314 3.66797 45.7578 3.66797ZM35.3249-20.7787Q33.5507-20.7787 32.5417-21.7796Q31.5326-22.7806 31.5326-24.5059L31.5326-45.5019Q31.5326-47.2435 32.5417-48.2363Q33.5507-49.2292 35.3249-49.2292L56.1908-49.2292Q57.9648-49.2292 58.974-48.2363Q59.9831-47.2435 59.9831-45.5019L59.9831-24.5059Q59.9831-22.7806 58.974-21.7796Q57.9648-20.7787 56.1908-20.7787Z"/>
  </g>
  <g id="Thin-S" transform="matrix(1 0 0 1 811.609 696)">
   <path d="M44.7891 2.69928Q52.5922 2.69928 59.3998-0.22568Q66.2073-3.15064 71.4249-8.37368Q76.6424-13.5967 79.5918-20.4043Q82.5411-27.2119 82.5411-35.0039Q82.5411-42.796 79.5918-49.6035Q76.6424-56.4111 71.4193-61.6342Q66.1963-66.8572 59.3888-69.7821Q52.5811-72.7071 44.7781-72.7071Q37.0239-72.7071 30.1974-69.7821Q23.3709-66.8572 18.1778-61.6342Q12.9847-56.4111 10.0353-49.6035Q7.08594-42.796 7.08594-35.0039Q7.08594-27.2119 10.0353-20.4043Q12.9847-13.5967 18.1833-8.37368Q23.3819-3.15064 30.2084-0.22568Q37.0349 2.69928 44.7891 2.69928ZM34.2486-21.1446Q32.7112-21.1446 31.8206-22.0487Q30.9298-22.9528 30.9298-24.4413L30.9298-45.5665Q30.9298-47.0928 31.8206-47.978Q32.7112-48.8632 34.2486-48.8632L55.3297-48.8632Q56.867-48.8632 57.7578-47.978Q58.6484-47.0928 58.6484-45.5665L58.6484-24.4413Q58.6484-22.9528 57.7578-22.0487Q56.867-21.1446 55.3297-21.1446Z"/>
  </g>
  <g id="Ultralight-S" transform="matrix(1 0 0 1 515.394 696)">
   <path d="M44.293 2.20312Q52.0078 2.20312 58.7217-0.677734Q65.4355-3.55859 70.5869-8.70996Q75.7383-13.8613 78.6436-20.5752Q81.5488-27.2891 81.5488-35.0039Q81.5488-42.7188 78.6436-49.4326Q75.7383-56.1465 70.5869-61.2979Q65.4355-66.4492 58.7217-69.3301Q52.0078-72.2109 44.293-72.2109Q36.627-72.2109 29.8887-69.3301Q23.1504-66.4492 18.0234-61.2979Q12.8965-56.1465 9.99121-49.4326Q7.08594-42.7188 7.08594-35.0039Q7.08594-27.2891 9.99121-20.5752Q12.8965-13.8613 18.0234-8.70996Q23.1504-3.55859 29.8887-0.677734Q36.627 2.20312 44.293 2.20312ZM33.6973-21.332Q32.2812-21.332 31.4512-22.1865Q30.6211-23.041 30.6211-24.4082L30.6211-45.5996Q30.6211-47.0156 31.4512-47.8457Q32.2812-48.6758 33.6973-48.6758L54.8887-48.6758Q56.3047-48.6758 57.1348-47.8457Q57.9648-47.0156 57.9648-45.5996L57.9648-24.4082Q57.9648-23.041 57.1348-22.1865Q56.3047-21.332 54.8887-21.332Z"/>
  </g>
 </g>
</svg>
